<?xml version="1.0" encoding="UTF-8" standalone="no"?>
<!-- Created with Inkscape (http://www.inkscape.org/) -->

<svg
   version="1.1"
   id="svg1"
   width="477.84448"
   height="297.20853"
   viewBox="0 0 477.84448 297.20852"
   sodipodi:docname="jayna-yellow.png"
   xmlns:inkscape="http://www.inkscape.org/namespaces/inkscape"
   xmlns:sodipodi="http://sodipodi.sourceforge.net/DTD/sodipodi-0.dtd"
   xmlns="http://www.w3.org/2000/svg"
   xmlns:svg="http://www.w3.org/2000/svg">
  <defs
     id="defs1" />
  <sodipodi:namedview
     id="namedview1"
     pagecolor="#505050"
     bordercolor="#eeeeee"
     borderopacity="1"
     inkscape:showpageshadow="0"
     inkscape:pageopacity="0"
     inkscape:pagecheckerboard="0"
     inkscape:deskcolor="#d1d1d1" />
  <g
     inkscape:groupmode="layer"
     inkscape:label="Image"
     id="g1"
     transform="translate(-0.43776181,-0.35574099)">
    <g
       id="g2"
       transform="translate(0.0422394,-0.03953137)">
      <path
         style="fill:#f1c466"
         d="m 16.393556,291.28539 -1.366444,-0.12281 1.046444,-1.46998 c 1.319885,-1.8541 3.451942,-3.55231 5.699854,-4.54002 6.817233,-2.9954 7.806587,-3.65867 9.580214,-6.42263 l 1.008993,-1.57238 -0.352567,-0.65878 c -0.453965,-0.84824 -0.64205,-0.83417 -5.743176,0.42978 -6.20277,1.53691 -6.57904,1.24307 -2.841121,-2.21866 5.413193,-5.01323 11.158548,-7.37694 20.170016,-8.29821 15.863521,-1.62177 21.544702,-6.93043 22.620032,-21.13681 0.476533,-6.29558 0.07543,-10.6532 -2.517927,-27.35488 -1.093083,-7.03965 -2.507337,-17.46198 -4.828691,-35.58495 -0.872506,-6.81172 -1.958217,-14.94772 -2.412691,-18.08 -0.454474,-3.13228 -1.01857,-7.24919 -1.253545,-9.1487 C 54.531119,149.67543 54.75012,149.70752 46.24,153.79304 22.928524,164.98436 1.6,172.31477 1.6,169.13538 c 0,-3.13598 11.049677,-12.67379 20.143021,-17.38695 5.308426,-2.7514 6.145357,-3.57738 4.956226,-4.89136 -0.891229,-0.98479 -1.942514,-0.74112 -5.551271,1.28669 -15.4831194,8.70019 -17.0623863,5.85503 -3.605014,-6.49468 5.839493,-5.35885 5.561131,-4.92554 4.028624,-6.2711 -1.533529,-1.34645 -1.380169,-1.56214 2.643753,-3.71814 5.481618,-2.93702 18.772125,-10.52085 27.086134,-15.45588 4.19181,-2.48817 7.816179,-4.52395 8.054153,-4.52395 3.255499,0 13.140762,2.90909 15.732354,4.62982 l 1.780512,1.18219 -0.221403,4.05399 c -0.353878,6.47967 0.2251,7.01294 4.401461,4.054 3.003735,-2.12814 5.138969,-1.39231 9.637954,3.32138 l 0.926505,0.97072 -3.006505,-0.0545 c -5.976496,-0.10826 -8.340099,3.31898 -4.659758,6.75668 l 0.807554,0.75431 -0.919106,1.26879 c -0.505509,0.69784 -1.179227,2.0144 -1.49715,2.92569 l -0.578044,1.6569 0.03441,5.92 0.03441,5.92 1.945086,11.52 c 2.793343,16.54391 4.766346,30.71745 6.147214,44.16 0.361587,3.52 0.940134,8.92 1.28566,12 2.142221,19.09564 2.068158,26.57678 -0.337394,34.08 -5.852748,18.25546 -17.062809,28.47116 -35.070532,31.95969 -10.708105,2.07441 -30.39005,3.33593 -39.405304,2.52569 z M 131.76331,262.66696 c -4.03738,-0.86226 -17.25357,-10.04895 -19.02323,-13.22321 l -0.71151,-1.27625 0.12915,-16.00375 c 0.28123,-34.85083 1.20467,-45.41336 5.74944,-65.76374 2.80873,-12.57679 3.28857,-16.37281 2.68995,-21.28 l -0.11711,-0.96 0.48,0.14971 c 2.54047,0.79239 6.26048,-0.22096 8.16,-2.22282 1.69526,-1.7866 2.76908,-2.26793 4.84718,-2.17271 l 1.87282,0.0858 -0.0118,-0.96 c -0.008,-0.67517 -1.17138,-2.73763 -3.92,-6.95131 -2.14952,-3.29519 -3.9082,-6.19917 -3.9082,-6.45326 0,-1.28232 8.56077,-7.97145 10.7204,-8.3766 l 1.10614,-0.20752 1.42026,0.83233 c 5.81225,3.40621 13.16019,19.03255 17.92337,38.11638 2.02265,8.10384 2.58431,10.99557 4.32427,22.26377 4.35778,28.22167 10.12569,47.62274 18.35409,61.73623 l 1.77237,3.04 -2.29045,2.34004 c -5.13178,5.24287 -10.64776,7.59308 -12.71166,5.41609 -1.33042,-1.40332 -7.32633,-14.11004 -10.02655,-21.24859 -1.38004,-3.64841 -1.19901,-3.70548 -8.47655,2.67211 -6.40607,5.61388 -5.8583,5.38631 -7.94426,3.30035 -1.59335,-1.59335 -2.11337,-1.82996 -2.91065,-1.32433 l -0.41922,0.26586 0.0215,8.44924 c 0.0407,15.9973 -1.72278,20.90455 -7.09976,19.75618 z m 14.29833,-51.75777 c 6.95354,-6.52575 6.80267,-2.3986 1.2059,-32.98918 l -1.84421,-10.08 -0.6661,-0.0963 c -2.07598,-0.30008 -6.34144,22.68487 -6.7283,36.25629 -0.39762,13.94896 0.0872,14.36592 8.03271,6.90918 z m 156.49836,1.0514 c -7.50608,-1.13125 -7.75986,-1.26994 -8.15463,-4.45628 -0.68989,-5.56824 -1.68979,-7.5873 -4.28882,-8.66023 l -1.46329,-0.60407 -2.3e-4,-11.2 c -7.5e-4,-35.84161 -2.37998,-68.45609 -5.96049,-81.70646 l -0.807,-2.98645 0.38284,-0.46129 c 1.70472,-2.054065 15.56285,-9.152253 18.24751,-9.346444 l 1.80357,-0.130458 1.31827,1.190976 c 3.88296,3.508025 19.61405,24.938246 39.52192,53.840126 l 2.47971,3.6 h 0.79036 c 1.1732,0 1.22658,-0.51825 0.65355,-6.34529 -0.65309,-6.6412 -2.27611,-26.44252 -2.79786,-34.13472 -0.21488,-3.168 -0.403,-11.015996 -0.41805,-17.439996 -0.0297,-12.669481 0.005,-13.065764 1.93612,-21.920001 0.61407,-2.816 2.3295,-10.993738 3.81207,-18.172752 1.48257,-7.179013 2.83402,-13.311434 3.00323,-13.6276 0.60322,-1.127126 2.88669,-2.891068 4.20055,-3.244853 l 1.33559,-0.359639 2.40837,0.491136 c 4.31882,0.880734 7.51165,3.452472 11.27671,9.083084 l 2.08,3.110623 1.39927,0.705939 c 0.7696,0.388266 1.44962,0.756281 1.51115,0.817811 0.0615,0.06153 -0.37931,2.061918 -0.97964,4.445307 -2.44769,9.717625 -4.43056,24.400471 -5.03872,37.310936 l -0.38061,8.079992 0.37964,6.800013 c 0.2088,3.74 0.87513,10.97601 1.48072,16.08001 2.94849,24.85015 4.08671,53.14059 2.16213,53.7396 -0.29366,0.0914 -1.54194,0.23081 -2.77394,0.3098 -3.02244,0.19378 -3.20976,0.29913 -4.35614,2.44997 -1.33302,2.50099 -2.90034,4.27864 -4.71072,5.34288 l -1.49314,0.87775 -2.24,-0.0157 c -7.55476,-0.0531 -29.42315,-20.83078 -42.33573,-40.22427 -1.48908,-2.23647 -2.40541,-2.71486 -3.25027,-1.69688 l -0.38436,0.46313 0.34448,5.37687 c 0.18946,2.95728 0.56536,9.62488 0.83533,14.81688 0.26997,5.192 0.70334,13.03438 0.96303,17.4275 0.25968,4.39313 0.47739,11.99018 0.48378,16.88233 l 0.0116,8.89482 -0.61769,1.39641 -0.6177,1.3964 -1.80677,0.88397 -1.80678,0.88397 -3.58947,0.0899 c -1.97422,0.0495 -4.02148,0.0248 -4.54948,-0.0548 z m 102.55058,-14.08206 c -4.75715,-10.34768 -7.31622,-21.07311 -7.81612,-32.75852 -0.49977,-11.68211 -0.88457,-17.5976 -1.54041,-23.68 l -0.70733,-6.56 0.022,-9.12 c 0.0464,-19.24248 3.2146,-39.13969 9.74646,-61.21148 l 1.68432,-5.691473 1.26918,-1.441864 c 4.06222,-4.614923 12.8622,-6.419986 18.35188,-3.764362 8.66452,4.191444 20.69098,29.834495 28.56609,60.909179 2.00917,7.92808 6.45299,22.29138 9.01086,29.1249 1.75802,4.69667 3.38271,8.5068 7.29809,17.1151 l 1.16439,2.56 v 3.52 3.52 l -1.09356,2.01684 c -1.35608,2.501 -4.0147,4.98231 -6.67475,6.22958 l -2.00832,0.94168 -1.13749,-0.21339 c -2.02534,-0.37996 -3.10316,-1.811 -5.6749,-7.53471 -1.30481,-2.904 -3.19874,-7.08 -4.20874,-9.28 -1.01001,-2.2 -2.69579,-5.872 -3.74618,-8.16 -2.89481,-6.30557 -1.23299,-6.55391 -16.29267,2.43473 l -11.8008,7.04352 -0.18902,0.75311 c -0.10396,0.41422 0.0645,2.16961 0.37431,3.90088 2.66987,14.91888 -3.26307,29.86952 -12.44455,31.35947 l -1.14203,0.18533 z m 14.41121,-44.35852 c 0.007,-3.83817 3.89624,-7.88242 14.02857,-14.58611 5.60942,-3.71127 5.42394,-3.35843 4.56665,-8.68733 -2.30314,-14.31613 -9.99175,-38.31144 -13.74276,-42.88962 l -0.65296,-0.796946 -0.48856,0.48 c -1.98562,1.95083 -5.69153,36.483446 -6.14708,57.280006 l -0.17874,8.16 0.66184,1.04 c 0.38832,0.61019 0.92829,1.04 1.30655,1.04 H 419.52 Z M 98.467306,111.50714 c -4.262982,-0.58095 -6.563409,-1.12457 -7.003662,-1.65504 -1.136355,-1.36922 -0.634655,-13.064877 0.887375,-20.68649 1.728231,-8.654174 1.997315,-8.856049 8.990391,-6.744867 3.19756,0.96533 15.3613,5.375301 15.66555,5.679556 0.0543,0.05428 -0.40264,1.501365 -1.01538,3.215739 -1.5857,4.43659 -2.12542,7.836719 -2.1826,13.749812 l -0.049,5.06584 -0.58097,0.42477 c -1.73614,1.26936 -8.95177,1.73564 -14.711724,0.95068 z m 46.019344,-3.57319 c -3.9099,-3.68382 -7.45442,-5.38868 -10.71337,-5.15295 l -1.84371,0.13336 -0.19791,-3.234615 c -0.33813,-5.526264 0.51494,-14.161373 1.6078,-16.274717 l 0.47983,-0.927888 1.97035,0.179174 c 1.34053,0.121901 4.11844,0.976878 8.69036,2.674685 l 6.72,2.49551 3.44,0.0067 c 3.84256,0.0075 3.7175,-0.1 2.84229,2.443844 -1.13548,3.300328 -10.38748,19.627087 -11.0339,19.471237 -0.0266,-0.006 -0.9094,-0.8229 -1.96174,-1.81439 z M 391.52,35.833439 c -13.46688,-0.988651 -13.6,-1.0813 -13.6,-9.465768 0,-4.851311 2.11186,-15.4662 3.31676,-16.6711008 0.17444,-0.1744333 2.69997,0.9141178 16.60629,7.1576108 2.63346,1.182338 3.39413,1.658686 3.23501,2.02582 -0.90336,2.084287 -1.14707,4.063121 -1.19106,9.671033 l -0.047,5.991032 -0.64,0.624074 c -0.82576,0.805214 -3.10446,1.003205 -7.68,0.667299 z M 433.64025,31.9772 c -6.96572,-2.147099 -15.02116,-5.692666 -17.34914,-7.63615 l -1.03848,-0.866966 3.40928,-4.561251 c 5.60069,-7.493119 8.66679,-12.8384411 9.05884,-15.7928329 0.33648,-2.53561911 4.94023,-0.3854741 13.03152,6.0862662 1.20575,0.9644057 3.17896,2.4331827 4.38491,3.2639487 l 2.19263,1.510483 -0.48711,0.695444 c -0.26791,0.382494 -1.39363,2.816838 -2.5016,5.409652 -2.4996,5.849432 -5.15607,11.203438 -6.03048,12.154207 -0.81663,0.887938 -0.96399,0.879645 -4.67037,-0.262801 z"
         id="path4" />
      <path
         style="fill:#f0b02c"
         d="m 202.2036,266.52361 -0.67639,-0.67639 0.20755,-1.64361 c 0.71919,-5.69515 12.49517,-22.20329 20.38721,-28.57976 2.69375,-2.17645 2.72762,-2.30047 2.06509,-7.56224 C 215.87194,162.02307 203.47624,127.28254 173.01306,84.640004 161.50013,68.524138 143.94741,46.146348 134.56,35.616566 c -5.55053,-6.225986 -6.71829,-8.284068 -5.47801,-9.65456 0.75164,-0.830557 0.64131,-1.718978 -0.42979,-3.460742 -2.97419,-4.836492 -1.48022,-7.560682 5.40357,-9.853195 2.74166,-0.913055 3.86423,-1.862164 3.86423,-3.2671145 0,-2.8546228 4.03583,-5.0488635 6.33033,-3.4417348 3.21937,2.254936 41.77646,52.3780323 51.825,67.3709933 11.47151,17.116117 25.54038,21.646758 45.65477,14.70234 1.03955,-0.358902 1.94799,-0.652549 2.01876,-0.652549 0.0708,0 -0.34777,0.89615 -0.93009,1.991444 -3.97371,7.474199 -12.52988,11.281372 -24.0017,10.679872 l -4.06293,-0.213034 -0.33861,0.632694 -0.33861,0.6327 3.5749,6.49816 c 1.9662,3.57399 4.83575,9.30617 6.37678,12.73817 2.02487,4.50952 2.96405,6.26515 3.38664,6.33069 l 0.58476,0.0907 1.73105,-5.16314 c 7.58911,-22.635832 25.92587,-51.029074 49.58447,-76.778258 l 1.91113,-2.08 0.58668,0.35259 c 1.99558,1.199339 -0.50933,7.586885 -5.95822,15.193528 -2.00637,2.800884 -2.25537,3.588136 -1.46529,4.632721 1.17154,1.548905 -0.69697,6.96564 -3.44176,9.977569 l -0.65287,0.716407 0.41419,1.255003 0.41419,1.255003 -1.9194,3.62859 c -1.05566,1.995725 -3.16872,5.644591 -4.69568,8.108591 -11.29704,18.229616 -22.40888,49.697246 -23.86016,67.569616 -0.40013,4.92756 -0.31006,6.07947 1.44732,18.51039 0.77132,5.456 1.9141,14.528 2.53951,20.16 0.6254,5.632 1.34731,11.896 1.60424,13.92 0.25693,2.024 0.61852,5.31759 0.80353,7.31909 0.51708,5.59387 0.67665,5.69404 5.21785,3.27563 1.61657,-0.86091 3.49101,-1.73997 4.16543,-1.95347 l 1.22621,-0.38818 1.43453,0.54785 1.43454,0.54786 1.84456,-0.82779 c 6.38614,-2.86593 11.06047,-1.33218 8.67053,2.84498 -1.07075,1.87148 -1.03032,2.29195 0.37741,3.92516 1.58838,1.84281 0.99152,2.68775 -3.76602,5.33144 -3.09084,1.71753 -14.5329,8.65086 -38.04797,23.05523 -8.272,5.06709 -16.984,10.32176 -19.36,11.67705 -2.376,1.35528 -4.824,2.77434 -5.44,3.15346 -1.3972,0.8599 -1.74971,0.86198 -2.5964,0.0153 z"
         id="path3" />
      <path
         style="fill:#010100"
         d="m 21.52,297.3859 c -2.405158,-0.16406 -2.448529,-0.33534 -0.702388,-2.77379 l 1.297611,-1.8121 -2.497611,-0.003 c -5.734647,-0.006 -6.63433,-0.40968 -5.567508,-2.49573 1.563552,-3.05734 4.320236,-5.31412 8.634955,-7.06907 l 2.83333,-1.15242 2.520805,-2.37322 c 1.840837,-1.73307 2.305012,-2.31717 1.720806,-2.16541 -0.44,0.11429 -2.504621,0.59991 -4.588046,1.07914 l -3.788047,0.87133 -0.851953,-0.47601 c -0.531637,-0.29704 -0.889915,-0.80195 -0.952919,-1.34291 l -0.100964,-0.86689 1.700965,-1.80674 c 5.467863,-5.80789 12.254938,-8.89121 21.760175,-9.88548 21.402626,-2.23878 25.080925,-10.27043 19.928255,-43.51381 -1.397771,-9.01798 -3.474656,-24.17786 -5.260749,-38.4 -1.069924,-8.51949 -3.234115,-24.27279 -3.352668,-24.40431 -0.0418,-0.0464 -2.366056,1.01281 -5.165021,2.35373 -19.318167,9.25488 -38.397556,15.85803 -41.9348457,14.51316 -1.2160958,-0.46236 -0.8258865,-2.68927 0.8044062,-4.59072 L 8.48,170.46374 7.2,170.68112 c -0.704,0.11956 -2.2327302,0.30449 -3.3971782,0.41096 l -2.1171781,0.19357 -0.6828219,-0.68282 C -1.2308107,168.3692 2.7551807,163.14032 12,156.17658 c 4.531315,-3.41325 4.960183,-4.08351 1.747678,-2.73139 -1.052171,0.44286 -2.751264,0.8928 -3.7757631,0.99988 l -1.8627248,0.1947 -0.712683,-0.90603 c -1.6075319,-2.04365 1.3921552,-6.10083 10.7872299,-14.59011 l 2.663736,-2.40692 -0.983736,-0.98374 c -2.038546,-2.03854 -1.715792,-2.34964 7.976263,-7.6881 7.528433,-4.14673 19.519038,-11.06711 26.707488,-15.41424 4.399776,-2.66071 4.161856,-2.6252 9.818141,-1.46541 9.002437,1.8459 13.422496,4.1568 13.921685,7.27855 l 0.199484,1.24751 1.193872,0.60907 c 0.656629,0.33498 1.635893,0.981 2.176142,1.43559 0.687999,0.57891 1.204854,0.77066 1.725244,0.64005 1.47858,-0.3711 9.200016,5.9088 9.236345,7.51199 0.01389,0.61275 0.53053,1.20468 2.105261,2.41203 2.207829,1.69274 2.835155,2.48456 2.552333,3.22159 l -0.173287,0.45157 -3.131354,-0.0754 -3.131354,-0.0754 -1.053873,0.57423 c -2.078773,1.13269 -2.132576,2.87111 -0.156551,5.05833 0.821442,0.90924 1.082924,1.42056 0.871878,1.70493 -1.520275,2.04847 -2.112532,3.19625 -2.569801,4.9802 l -0.533154,2.08 0.169312,5.12 0.169311,5.12 1.618115,9.44 c 2.649584,15.45754 5.052343,32.69581 6.445171,46.24 0.361982,3.52 0.941178,8.92 1.287102,12 0.790328,7.03683 1.254391,13.35092 1.493829,20.32519 l 0.186942,5.4452 -0.543279,2.7148 C 94.792556,274.79683 83.854834,287.96083 68.16,293.0704 c -9.431548,3.07051 -32.966824,5.24818 -46.64,4.3155 z m 17.2,-6.21859 c 27.455134,-1.80557 40.624546,-8.87434 49.123408,-26.3673 5.84487,-12.03033 6.243656,-17.3462 3.336798,-44.48 -2.665454,-24.88044 -3.981662,-34.76253 -7.075112,-53.12 l -1.941256,-11.52 -0.159835,-5.78768 -0.159836,-5.78768 0.549738,-1.89232 c 0.302357,-1.04078 0.964387,-2.50705 1.471179,-3.25838 l 0.92144,-1.36606 -1.113262,-1.45845 c -1.917224,-2.5117 -1.426744,-4.71015 1.28161,-5.74448 l 1.435944,-0.5484 2.564592,0.22372 2.564592,0.22371 v -0.49495 c 0,-0.52595 -2.967249,-3.10118 -5.902945,-5.12307 l -1.76987,-1.21895 -2.238261,1.55649 c -1.231043,0.85607 -2.58692,1.76553 -3.013059,2.02102 l -0.774798,0.46452 -0.556138,-0.46155 -0.556138,-0.46156 0.20848,-4.36729 0.20848,-4.3673 -1.131773,-0.99371 c -2.169609,-1.90494 -5.743184,-3.21835 -12.756951,-4.6886 l -4.050771,-0.84914 -8.073128,4.78797 c -9.811458,5.81894 -17.486624,10.2127 -24.713128,14.1474 -2.992,1.62908 -5.650031,3.15977 -5.906736,3.40152 l -0.466735,0.43954 1.223143,1.25262 c 1.464533,1.49981 1.505952,1.35954 -1.089672,3.69036 -16.7729163,15.06174 -15.7123718,18.97387 2.328074,8.58778 2.78032,-1.60066 3.905608,-1.66116 4.264979,-0.22932 0.293587,1.16974 -0.422539,1.7975 -4.331417,3.79694 -10.328909,5.28337 -21.8139009,15.37793 -20.7248935,18.21584 1.0442032,2.72115 21.3878605,-4.27379 43.9351445,-15.10661 8.604587,-4.13406 8.823,-4.14268 9.227223,-0.36393 0.122377,1.144 0.722787,5.608 1.334245,9.92 0.611457,4.312 1.679768,12.34205 2.374023,17.84456 1.904227,15.09248 4.045126,30.7543 5.301567,38.78379 2.262412,14.45831 2.701269,19.90239 2.077497,25.77165 -1.42295,13.38897 -6.818256,18.34798 -21.597624,19.85111 -9.844573,1.00124 -15.80215,3.46963 -21.476556,8.89832 -3.473604,3.32319 -2.907557,3.67579 3.420333,2.13057 5.481762,-1.33859 6.448508,-1.18269 5.353492,0.86337 -1.457463,2.72329 -3.86138,4.52784 -8.411197,6.31402 -3.801794,1.49252 -8.19489,5.16115 -8.19489,6.84346 0,0.67466 13.592564,0.68984 23.68,0.0265 z M 207.78092,272.9548 c -1.14649,-0.45704 -1.48315,-1.48263 -1.28043,-3.90065 l 0.1838,-2.19229 -0.91522,0.65169 c -3.69419,2.6305 -6.43404,-0.39948 -4.93309,-5.45546 1.95653,-6.59058 13.20146,-21.58065 21.04083,-28.04852 l 1.55682,-1.28445 -0.6951,-5.24255 c -2.47305,-18.65218 -6.80903,-43.30759 -9.59164,-54.5404 -6.58999,-26.60229 -17.55905,-52.13679 -31.56804,-73.486178 -12.24164,-18.655972 -37.46754,-51.520203 -50.54968,-65.85599 -3.47454,-3.807497 -4.58856,-6.77369 -3.14366,-8.37029 l 0.52551,-0.580683 -0.79468,-1.204514 c -0.43707,-0.662483 -1.10458,-2.140514 -1.48336,-3.284514 l -0.68869,-2.08 0.32965,-1.188241 c 0.56036,-2.019838 3.70217,-4.15035 8.36353,-5.671446 l 2.13747,-0.697499 0.34709,-1.6184091 c 0.85931,-4.0068288 5.40099,-6.3331449 8.24849,-4.2249966 3.72012,2.7542019 42.44983,52.2471917 53.68948,68.6102097 7.22283,10.515203 15.73334,16.334255 24.65864,16.860322 l 2.89864,0.170849 5.04301,-1.012588 c 2.77365,-0.556924 6.68764,-1.5111 8.69775,-2.120393 3.93112,-1.191574 4.62674,-1.295021 5.15514,-0.766625 0.24158,0.241574 0.60303,-0.108762 1.23807,-1.2 5.23592,-8.997169 22.11885,-30.714257 32.21548,-41.439867 2.44844,-2.600962 3.02815,-2.81771 4.41503,-1.65073 l 1.03463,0.870584 -0.14532,2.264402 -0.14532,2.264403 -1.35086,2.715013 -1.35085,2.715013 2.78479,-2.8 c 2.99599,-3.012358 3.29334,-3.157828 4.33192,-2.11925 l 0.68075,0.680749 -0.17596,1.940527 c -0.21982,2.424216 -2.12445,6.382947 -5.42055,11.266521 -1.27875,1.894611 -2.54099,3.785432 -2.80499,4.201826 l -0.48,0.757079 0.56,0.982207 c 1.10365,1.935728 0.0707,5.669013 -2.63628,9.528073 l -1.30604,1.861895 0.33168,0.872395 c 0.60911,1.602071 0.0562,2.778101 -6.1818,13.14798 -13.62434,22.648806 -25.33684,58.562366 -24.05539,73.760006 0.1113,1.32 0.83741,6.864 1.61356,12.32 0.77616,5.456 1.78151,13.304 2.23412,17.44 1.12775,10.30561 2.06469,18.25955 2.25076,19.10737 l 0.15525,0.70738 1.49706,-0.64172 c 2.10749,-0.90338 3.88339,-1.08756 5.21897,-0.54128 l 1.11811,0.45733 1.63386,-0.74688 c 2.17147,-0.99262 4.98232,-1.48822 7.28018,-1.2836 l 1.87404,0.16688 0.95507,0.90726 0.95508,0.90726 -0.15037,1.44 c -0.0827,0.792 -0.25521,1.692 -0.38335,2 l -0.23298,0.56 h 1.65013 c 3.7433,0 4.74669,1.73418 2.89834,5.00928 -1.16071,2.05666 -1.15876,1.78207 -0.0218,3.07699 0.51601,0.5877 1.03268,1.445 1.14816,1.90511 l 0.20997,0.83657 -1.06816,1.12189 c -0.58749,0.61704 -2.97389,2.21343 -5.30313,3.54754 -4.37309,2.50477 -12.7,7.55686 -37.20503,22.57298 -21.8888,13.41295 -25.77692,15.5715 -27.09908,15.04443 z m 1.59614,-8.91156 c 3.02662,-1.73622 12.27094,-7.30114 20.54294,-12.36647 24.91257,-15.25515 33.41913,-20.41281 37.23481,-22.57606 5.54547,-3.14393 6.07278,-3.90307 4.2182,-6.07279 -1.15821,-1.35501 -1.18917,-1.89704 -0.20624,-3.61093 1.24312,-2.16757 1.29684,-2.66247 0.38765,-3.57165 l -0.80533,-0.80533 -2.33454,0.008 c -1.71066,0.006 -2.93317,0.23055 -4.57455,0.84005 -2.27187,0.84362 -3.31146,0.94494 -5.94486,0.57937 l -1.46486,-0.20335 -3.89754,2.01401 -3.89754,2.014 -0.51317,-0.51317 c -0.37136,-0.37136 -0.62993,-1.73824 -0.93566,-4.94617 -0.23237,-2.43815 -0.64881,-6.26015 -0.92543,-8.49332 -0.27661,-2.23318 -0.9375,-7.99318 -1.46864,-12.8 -0.53113,-4.80683 -1.6177,-13.27568 -2.41459,-18.81968 -2.06252,-14.34895 -2.13714,-17.80974 -0.5803,-26.91239 2.91079,-17.01895 13.41154,-44.61272 22.70191,-59.655866 1.51892,-2.459463 3.56531,-5.91175 4.54754,-7.67175 l 1.78586,-3.200001 0.0236,-2.098643 0.0236,-2.098643 0.86931,-1.0332 c 1.05464,-1.253476 2.63071,-4.487407 3.17044,-6.50541 l 0.39585,-1.480016 -0.5378,-0.820786 c -0.90722,-1.384597 -0.66174,-2.330279 1.3274,-5.113498 3.61709,-5.061077 6.3032,-10.192901 6.64408,-12.693547 l 0.19681,-1.443743 -0.67043,-0.796257 -0.67043,-0.796258 -2.49098,2.56 c -21.01521,21.597521 -41.81346,53.782346 -49.52576,76.640008 -0.97341,2.88499 -1.84196,4.96 -2.07613,4.96 -0.52279,0 -0.55915,-0.069 -3.2039,-6.08 -1.239,-2.816 -3.93927,-8.216 -6.0006,-12.00001 -4.9704,-9.124223 -4.96877,-8.835884 -0.0466,-8.27963 10.41547,1.17705 20.6993,-3.216818 24.54044,-10.485159 1.40686,-2.662123 1.40194,-2.667217 -1.62418,-1.680905 -4.73995,1.544906 -14.32296,3.490729 -17.1394,3.480142 -8.47707,-0.03187 -20.99382,-8.039856 -27.25061,-17.434445 C 185.45481,57.063974 146.39146,6.5631226 143.69935,5.4480151 c -2.41352,-0.9997143 -5.52502,1.0087726 -5.98108,3.8608209 -0.28985,1.812623 -0.86636,2.301465 -3.90941,3.314893 -3.09693,1.031373 -5.88252,2.78598 -6.63178,4.177281 l -0.54492,1.011843 0.70425,2.116264 c 0.38734,1.163945 0.95859,2.448053 1.26945,2.853574 0.96545,1.259444 1.04549,1.877429 0.38755,2.992551 l -0.61934,1.049693 0.33278,1.311043 c 0.25468,1.003332 1.49648,2.643351 5.2909,6.987533 17.14747,19.631926 40.96414,51.231773 52.15311,69.196489 15.00112,24.08541 26.67354,55.72537 31.93319,86.56001 0.63044,3.696 1.43081,8.304 1.77859,10.24 1.69071,9.41181 4.45736,28.55454 4.45736,30.8409 v 1.56586 l -2.48,2.14522 c -11.14113,9.63716 -22.67681,27.66499 -19.76274,30.88499 0.92172,1.0185 1.47369,0.82842 7.2998,-2.51374 z m 20.52328,-147.00762 c 0.81346,-2.24642 2.25344,-5.77442 3.19996,-7.84 1.98648,-4.33511 1.98792,-4.04917 -0.0178,-3.54326 -0.92313,0.23285 -3.85387,0.40205 -7.16246,0.41351 -4.27604,0.0148 -5.58114,0.11317 -5.52024,0.41603 0.0439,0.21816 1.16697,2.35862 2.49579,4.7566 1.32882,2.39797 3.07141,5.64782 3.87242,7.22188 0.80101,1.57407 1.5007,2.81642 1.55487,2.76078 0.0542,-0.0556 0.76403,-1.93913 1.5775,-4.18554 z m -96.67137,150.16996 c -4.0199,-2.03542 -8.13386,-5.004 -15.78897,-11.39311 -4.66268,-3.89158 -5.55065,-4.78124 -6.17034,-6.18216 l -0.64407,-1.45603 0.0545,-11.52713 c 0.17318,-36.59309 1.29528,-49.93373 5.96239,-70.88714 2.58701,-11.61462 2.8597,-13.54244 2.61065,-18.45635 l -0.19911,-3.92866 0.65962,-0.35302 c 0.48262,-0.25829 1.06689,-0.25532 2.17742,0.0111 2.3779,0.57044 4.06669,-0.007 6.6221,-2.26239 2.02448,-1.78718 2.59399,-2.04891 4.97456,-2.28619 l 0.84777,-0.0845 -3.35518,-5.12 c -5.3927,-8.22927 -5.32576,-7.72185 -1.4968,-11.34627 8.01297,-7.58495 11.6848,-7.82051 16.76795,-1.07573 0.7718,1.0241 2.1376,2.654 3.0351,3.622 8.40352,9.06363 15.76189,30.15696 19.98467,57.28759 4.72093,30.33119 10.26813,49.15057 18.72132,63.51377 2.18028,3.70462 2.2722,3.10581 -0.95187,6.20105 -7.02025,6.73972 -11.79054,7.98524 -14.5298,3.79371 L 171.10181,253.12 h -0.76682 c -2.44454,0 -4.64428,-3.32387 -9.21228,-13.92 -0.83461,-1.936 -1.60866,-3.61892 -1.72012,-3.73983 -0.11145,-0.1209 -2.21864,1.56631 -4.68264,3.74936 -5.29272,4.68923 -5.45253,4.73871 -7.665,2.3734 -2.15788,-2.30694 -2.10675,-2.49905 -2.21971,8.34091 l -0.10167,9.75616 -0.52567,2.23442 c -1.19116,5.06322 -2.78153,6.88225 -6.01898,6.88439 l -1.81103,10e-4 z m 2.07258,-4.81517 c 1.29627,-0.79031 2.34957,-2.98306 3.1465,-6.5504 l 0.5719,-2.56 0.0235,-9.44 0.0235,-9.44 0.74839,-0.10774 c 0.5515,-0.0794 1.19199,0.33034 2.43445,1.55737 2.0511,2.02562 1.23506,2.3774 7.81651,-3.36963 7.26802,-6.34655 7.12184,-6.29404 8.32556,-2.99081 2.49019,6.8336 8.68452,19.91122 10.16983,21.47081 l 0.83809,0.88 1.30013,-0.008 c 2.8065,-0.0164 6.43198,-2.11524 10.58013,-6.12498 l 2.56,-2.47458 -0.88897,-1.53642 c -9.29382,-16.06259 -14.62309,-33.67808 -19.29451,-63.77643 -4.34443,-27.99154 -11.77425,-49.62631 -19.92674,-58.02428 -4.12738,-4.25167 -6.3431,-3.69346 -14.19521,3.57621 -2.32181,2.14958 -2.5164,1.42114 2.41759,9.05023 2.22631,3.44239 4.04784,6.42008 4.04784,6.6171 0,0.65836 -1.14048,1.01608 -2.23692,0.70162 -1.38139,-0.39618 -2.5535,0.12606 -4.86745,2.1687 -2.23432,1.97236 -3.47443,2.40819 -6.43898,2.26294 l -2.29665,-0.11252 0.10019,0.64 c 0.76087,4.86048 0.29042,8.90164 -2.47731,21.28 -4.63495,20.72932 -5.30492,27.96141 -5.75105,62.08 -0.30603,23.40428 -0.7389,21.1878 5.01287,25.66759 10.56616,8.22949 15.22194,10.41314 18.25685,8.56281 z m 3.66583,-47.2561 -0.56738,-0.86569 -0.1142,-6.38135 c -0.16149,-9.02388 0.60617,-16.26713 3.0234,-28.52726 1.67167,-8.47864 2.51634,-11.36 3.33019,-11.36 0.67472,0 0.57811,-0.36823 1.93105,7.36 0.5392,3.08 1.39823,7.76 1.90897,10.4 3.93027,20.3156 4.05395,18.76742 -1.95659,24.49204 -6.4872,6.17861 -6.64078,6.27785 -7.55544,4.88226 z m 8.41199,-7.3743 c 2.23131,-2.07757 3.00902,-3.00641 3.01422,-3.6 0.0104,-1.18941 -2.92276,-18.03765 -3.19284,-18.33973 -0.64503,-0.72147 -3.19647,17.53897 -3.19966,22.89973 -0.001,2.3073 -0.18767,2.36025 3.37828,-0.96 z m 158.80779,10.00804 c -6.18808,-1.01296 -6.97376,-1.39655 -6.98226,-3.40886 -0.006,-1.44298 -0.30993,-1.68153 -2.79249,-2.19237 -2.68415,-0.55233 -2.92589,-0.90036 -3.46192,-4.98414 -0.56681,-4.31821 -1.38584,-6.10255 -3.19049,-6.95084 -0.704,-0.33092 -1.496,-0.71395 -1.76,-0.85117 l -0.48,-0.24949 -0.19819,-14.84559 c -0.53905,-40.37837 -2.3347,-64.23535 -5.90273,-78.42358 -1.20511,-4.79209 -1.34511,-4.5523 4.82092,-8.257249 14.17685,-8.518369 15.57004,-8.54847 22.43595,-0.484757 8.27901,9.723346 15.58127,19.581526 32.59219,44.000006 5.08156,7.29437 4.77366,6.97879 4.52713,4.64 -0.31806,-3.01739 -2.36508,-27.57087 -2.80123,-33.6 -0.55075,-7.61342 -0.55913,-30.232861 -0.0125,-33.760006 0.23184,-1.496001 1.1238,-5.960001 1.98214,-9.920001 0.85833,-3.96 2.51211,-11.88 3.67506,-17.600001 2.33777,-11.49839 2.56854,-12.232249 4.42439,-14.069725 4.52276,-4.477992 13.40007,-1.742886 18.61023,5.733826 0.43535,0.624744 1.65895,2.059033 2.7191,3.187308 1.06015,1.128275 1.92754,2.172275 1.92754,2.32 0,0.147725 0.19368,0.268591 0.4304,0.268591 0.67114,0 1.4896,1.086367 1.4896,1.977185 0,1.341014 1.7133,3.375195 3.22399,3.827809 1.75234,0.525014 1.75605,0.552881 0.65843,4.94862 -5.46795,21.898005 -6.71392,43.661644 -3.88193,67.806394 2.18865,18.65976 2.97537,30.1704 3.01196,44.06806 l 0.0275,10.46806 -0.54198,0.54249 c -0.37895,0.37931 -1.34709,0.60644 -3.21855,0.75508 -3.24633,0.25784 -3.1719,0.21472 -4.42329,2.56256 -1.40683,2.63949 -2.81976,4.18733 -4.82136,5.28174 l -1.71482,0.93761 -2.24,-0.009 c -3.7764,-0.0148 -7.66178,-2.05843 -13.56834,-7.13683 -1.55446,-1.33652 -3.8296,-3.25687 -5.05586,-4.26745 -5.23656,-4.31555 -17.36185,-17.24684 -23.55669,-25.12258 -2.83758,-3.60753 -3.18574,-3.85374 -2.9413,-2.08 0.091,0.66 0.46042,6.96 0.82105,14 0.36062,7.04 0.79776,14.744 0.97141,17.12 0.17366,2.376 0.40184,9.79812 0.50707,16.49361 l 0.19134,12.17361 -0.64631,1.4611 c -1.56355,3.53467 -7.14417,4.90199 -14.85521,3.63972 z m 5.419,-6.09576 c 4.38629,-1.30259 5.22694,-8.75579 3.6084,-31.99228 -0.18389,-2.64 -0.62247,-10.2 -0.97462,-16.8 -0.35216,-6.6 -0.73358,-13.54349 -0.84761,-15.42998 -0.31514,-5.21357 0.53734,-5.78944 3.05255,-2.06207 7.52825,11.15638 24.21818,29.48739 32.60924,35.81562 8.61769,6.49914 14.45282,5.84873 18.48953,-2.06093 0.985,-1.93003 1.08723,-1.98325 4.22429,-2.19914 1.89868,-0.13067 2.80414,-0.33852 3.2,-0.73458 l 0.55206,-0.55234 -0.0477,-9.98829 c -0.0651,-13.62484 -0.97321,-26.5498 -3.1187,-44.38829 -2.72555,-22.661456 -1.28414,-47.612253 3.91749,-67.811622 l 0.9285,-3.60561 -1.31978,-0.57282 c -1.59893,-0.693979 -2.15243,-1.294638 -4.46883,-4.849572 -3.44778,-5.29124 -7.66241,-8.238619 -12.19702,-8.529632 l -2.29741,-0.14744 -1.09826,0.554876 c -3.23798,1.635932 -3.41964,2.075273 -5.90683,14.28571 -1.16022,5.695857 -2.82923,13.66228 -3.70891,17.703164 -0.87969,4.040883 -1.83104,8.792883 -2.11412,10.56 l -0.51469,3.21294 0.0493,11.146479 c 0.058,13.111007 1.5343,35.939327 3.52712,54.538997 l 0.25536,2.38334 -0.44559,0.4456 c -0.91383,0.91382 -0.5657,1.29176 -5.77963,-6.27441 C 320.77788,114.71323 306.13838,94.961943 303.04,92.862041 l -1.12,-0.759072 -1.56426,0.145797 c -2.64148,0.246199 -17.79311,8.298134 -18.35109,9.752214 -0.10161,0.26479 0.26306,2.37089 0.81038,4.68023 3.36281,14.18884 5.09311,37.98643 5.72114,78.68539 l 0.20133,13.04659 1.34596,0.59538 c 2.48368,1.09865 3.41205,2.95141 4.02882,8.04039 0.44589,3.67901 0.29821,3.51386 3.84253,4.29712 5.32101,1.17589 10.38287,1.29685 13.65135,0.32621 z m 99.13862,-6.31228 c -0.25848,-0.396 -0.84395,-1.53837 -1.30103,-2.53859 l -0.83106,-1.8186 -0.97129,0.3386 c -2.12483,0.74072 -3.93741,-1.99361 -6.82484,-10.29548 -3.22673,-9.2774 -4.43761,-16.11141 -4.96667,-28.03091 -0.47394,-10.67757 -0.87883,-16.5546 -1.65175,-23.97502 l -0.66664,-6.4 0.17983,-9.12 c 0.4841,-24.551097 8.20504,-62.640591 13.72987,-67.73321 8.03115,-7.402856 19.44269,-6.234154 26.18275,2.681481 0.76993,1.018447 2.22142,2.746203 3.22554,3.839458 7.23486,7.877122 17.8402,33.292937 23.7459,56.907311 4.01425,16.05124 9.46132,31.59306 16.0887,45.90496 l 1.55591,3.36 v 3.68 3.68 l -0.90693,1.7599 c -4.0867,7.9303 -11.94809,10.20152 -15.0936,4.36067 -0.44722,-0.83045 -0.87623,-1.16378 -1.69569,-1.31751 -0.71361,-0.13387 -1.61541,-0.72954 -2.58038,-1.70443 l -1.4834,-1.49863 -1.80304,-4.16 c -1.5881,-3.66407 -7.28792,-16.17998 -7.47081,-16.40474 -0.21743,-0.26719 -21.59659,12.83051 -21.75435,13.32755 -0.10287,0.32414 0.0527,2.0131 0.34569,3.75326 1.45103,8.61773 0.34825,17.84371 -2.79976,23.42299 -3.01051,5.33557 -10.70731,10.34887 -12.25295,7.98094 z m -1.43589,-6.05492 c 9.08196,-4.49387 13.04025,-16.36385 10.50959,-31.51575 -0.21042,-1.25987 -0.29227,-2.65049 -0.1819,-3.09027 l 0.20069,-0.79959 10.16136,-6.06636 c 13.10516,-7.82382 13.67956,-8.14032 14.54945,-8.01693 0.9225,0.13085 0.70051,-0.31914 10.39148,21.06382 4.50155,9.9326 6.60767,10.90148 12.79151,5.88447 5.90681,-4.79225 6.33011,-9.72213 1.70047,-19.80447 -5.4402,-11.84756 -10.79982,-27.48169 -14.59023,-42.56 -7.71166,-30.677161 -19.94977,-56.688635 -28.66355,-60.922902 -7.32006,-3.557021 -18.35922,0.401781 -20.41997,7.322895 -0.34062,1.144 -1.13025,3.789527 -1.75472,5.878948 -7.68668,25.718696 -10.69239,51.936509 -8.47919,73.961059 0.57204,5.69265 0.75503,8.54973 1.60067,24.99126 0.56099,10.90725 2.51937,19.71698 6.53115,29.38022 2.48348,5.982 2.38783,5.90935 5.65319,4.2936 z m 8.59855,-45.62203 -0.70382,-0.88305 0.17732,-8.96 c 0.36158,-18.27057 3.93023,-53.705855 5.69318,-56.531061 0.9788,-1.568576 4.05528,4.773218 8.56272,17.651051 2.72849,7.79534 6.95481,26.29758 6.70331,29.34613 l -0.10015,1.21388 -5.1636,3.52 c -10.03189,6.83868 -13.15244,9.95449 -13.69333,13.67254 -0.27468,1.88811 -0.58278,2.09074 -1.47563,0.97051 z m 8.42371,-11.39514 c 1.01813,-0.81719 3.82613,-2.79385 6.24,-4.39258 2.41387,-1.59873 4.48749,-3.08169 4.60804,-3.29546 0.97699,-1.73244 -7.26907,-34.07643 -9.17321,-35.980566 -0.83037,-0.830367 -3.7548,26.219226 -4.52572,41.860696 l -0.21292,4.32 0.60633,-0.51315 c 0.33348,-0.28223 1.43935,-1.18176 2.45748,-1.99894 z M 103.90731,117.58714 c -6.780581,-0.92405 -7.776788,-1.36925 -8.159454,-3.64644 l -0.238503,-1.41931 -2.172092,-0.52954 c -3.525631,-0.85951 -3.721105,-1.34622 -3.723764,-9.27185 -0.0043,-12.851675 2.825284,-23.039996 6.398886,-23.039996 1.925037,0 17.960997,5.341742 21.427617,7.137756 l 0.8,0.414471 -0.0586,1.103886 c -0.0322,0.607138 -0.10422,1.443298 -0.16,1.858133 l -0.10143,0.754247 2.31171,0.853458 c 3.28235,1.211815 3.22237,1.061266 1.90213,4.773789 -1.69986,4.780026 -2.19872,7.788716 -2.29213,13.824256 -0.0985,6.36241 0.0273,5.6458 -1.09295,6.22513 -2.55773,1.32265 -9.08871,1.74598 -14.84145,0.96201 z m 7.24179,-6.18942 c 2.90813,-0.80759 2.74548,-0.42633 2.88808,-6.76949 0.13448,-5.981474 0.61527,-9.064416 2.01928,-12.948226 1.01186,-2.799017 1.24672,-4 0.78222,-4 -0.19468,0 -2.76702,-0.925925 -5.71632,-2.05761 -11.791685,-4.52463 -15.675006,-5.316886 -16.926417,-3.453244 -2.362339,3.518069 -4.632736,23.65505 -3.079219,27.3107 l 0.356904,0.83985 2.221955,0.54452 c 6.019551,1.47517 13.264997,1.69664 17.453517,0.5335 z m 37.6509,2.00913 c -1.496,-1.31607 -3.6539,-2.85501 -4.79534,-3.41985 l -2.07533,-1.027 -2.56467,0.007 c -2.99196,0.008 -3.03334,-0.0282 -3.03976,-2.64051 l -0.005,-1.9939 -0.72,-0.17465 c -0.396,-0.0961 -1.65045,-0.1348 -2.78767,-0.0861 l -2.06768,0.0885 -0.23388,-1.28 c -0.99401,-5.440014 0.37442,-18.855306 2.13153,-20.896275 l 0.74359,-0.863721 1.86706,0.03107 1.86705,0.03107 7.36,2.67615 7.36,2.67615 3.36141,0.02532 c 4.55569,0.03432 4.87791,0.417711 3.55914,4.234853 l -0.57856,1.674621 0.58375,0.185274 c 0.32106,0.101901 1.59158,0.08596 2.82339,-0.03542 l 2.23965,-0.22069 0.19329,0.5037 c 0.65906,1.71749 -6.16907,15.227298 -10.74207,21.253718 -1.49085,1.96468 -1.37295,1.98438 -4.48,-0.74898 z m -1.14466,-5.16477 c 4.37952,-6.03488 11.61697,-20.038603 10.48741,-20.292058 -0.12251,-0.02749 -1.51875,-0.07785 -3.10275,-0.111916 l -2.88,-0.06193 -3.36,-1.138207 c -1.848,-0.626013 -5.41967,-1.871651 -7.93704,-2.768084 -8.36573,-2.979029 -8.92594,-2.259718 -9.25088,11.878174 l -0.16705,7.268051 2.35748,-0.0226 c 3.70299,-0.0356 7.5023,1.85205 10.98243,5.45643 1.57202,1.62814 1.53616,1.63074 2.8704,-0.20782 z M 391.84,41.412771 c -8.23711,-1.111459 -8.59412,-1.261396 -8.96988,-3.767143 l -0.21602,-1.440506 -1.32705,-0.204928 c -3.75005,-0.579097 -4.18219,-1.11218 -4.71502,-5.816466 -0.88186,-7.785845 2.18466,-21.8637276 4.76248,-21.8637276 0.64354,0 14.23782,5.8611916 19.90549,8.5822806 l 1.12,0.53772 -0.0335,0.96 c -0.0184,0.528 -0.0904,1.307751 -0.16,1.73278 l -0.12653,0.772781 2.33554,1.018762 c 3.14867,1.373447 3.10808,1.30683 2.26073,3.710348 l -0.72107,2.045329 0.0486,5.44 c 0.0527,5.900926 -0.2023,7.550532 -1.28414,8.308285 l -0.70202,0.491716 -4.4888,-0.03772 C 397.05996,41.861532 393.6,41.650254 391.84,41.412771 Z m 7.11962,-5.744485 c 1.1215,-0.785528 1.41655,-2.598993 1.18518,-7.28445 l -0.20857,-4.223835 0.54371,-2.4 c 0.29904,-1.32 0.56538,-2.672132 0.59188,-3.004737 l 0.0482,-0.604737 -8.64,-3.889451 c -4.752,-2.139199 -9.24595,-4.131479 -9.98655,-4.427291 l -1.34655,-0.5378392 -1.10666,3.4320272 c -2.13814,6.630905 -2.94573,13.494378 -2.17105,18.451142 0.53101,3.397668 0.2704,3.291882 11.73081,4.761859 0.528,0.06772 2.69196,0.144711 4.8088,0.171081 l 3.8488,0.04795 z M 438.4,37.881913 c -6.6231,-2.031537 -12.73837,-4.671043 -16.72,-7.216784 -1.44034,-0.920913 -1.65584,-1.208752 -1.55145,-2.072206 0.0244,-0.201894 -0.93052,-0.89911 -2.12208,-1.549369 -4.81236,-2.626211 -4.88239,-3.147162 -1.09195,-8.122762 5.71123,-7.49696 9.12019,-13.3794402 9.5259,-16.4378043 0.53899,-4.0631039 4.86279,-2.34470639 16.27958,6.4699595 1.76,1.3588588 3.82603,2.8630038 4.59117,3.3425428 l 1.39117,0.871891 -0.1994,1.0629 -0.1994,1.0629 1.20823,0.92562 c 0.66453,0.50909 1.82023,1.318168 2.56823,1.79795 1.62681,1.043466 1.60003,0.721513 0.2787,3.351238 -0.59471,1.183607 -1.69246,3.592012 -2.43944,5.352012 -3.61544,8.518581 -5.82224,12.331858 -7.12127,12.305349 C 442.4031,39.01725 440.424,38.502745 438.4,37.881913 Z m -0.0803,-5.321912 c 0.97324,-1.043857 2.96698,-4.938827 5.19823,-10.155226 1.07178,-2.505692 2.37469,-5.399715 2.89536,-6.431163 1.14346,-2.265179 1.14812,-2.339099 0.17546,-2.782272 C 446.16458,12.998075 444,11.457521 441.77857,9.7678876 434.76085,4.4301678 428.63354,0.6997649 427.97142,1.3618838 c -0.0958,0.095855 -0.36993,1.109378 -0.60905,2.2522731 -0.70019,3.3465451 -3.18573,7.6160021 -8.8602,15.2193701 l -3.49757,4.686474 1.0479,0.881921 c 2.42384,2.039922 10.25204,5.473234 17.70747,7.766184 4.23868,1.303624 3.74893,1.261532 4.55973,0.391895 z"
         id="path2" />
    </g>
  </g>
</svg>
