<?xml version="1.0" encoding="UTF-8" standalone="no"?>
<!-- Created with Inkscape (http://www.inkscape.org/) -->

<svg
   version="1.1"
   id="svg1"
   width="477.97818"
   height="297.79984"
   viewBox="0 0 477.97818 297.79983"
   sodipodi:docname="jayna-green.png"
   inkscape:export-filename="jayna-green.svg"
   inkscape:export-xdpi="96"
   inkscape:export-ydpi="96"
   xmlns:inkscape="http://www.inkscape.org/namespaces/inkscape"
   xmlns:sodipodi="http://sodipodi.sourceforge.net/DTD/sodipodi-0.dtd"
   xmlns="http://www.w3.org/2000/svg"
   xmlns:svg="http://www.w3.org/2000/svg">
  <defs
     id="defs1" />
  <sodipodi:namedview
     id="namedview1"
     pagecolor="#505050"
     bordercolor="#eeeeee"
     borderopacity="1"
     inkscape:showpageshadow="0"
     inkscape:pageopacity="0"
     inkscape:pagecheckerboard="0"
     inkscape:deskcolor="#d1d1d1" />
  <g
     inkscape:groupmode="layer"
     inkscape:label="Image"
     id="g1"
     transform="translate(-0.37091664,-0.06008756)">
    <g
       id="g2"
       transform="translate(-0.0298726,0.0824766)">
      <path
         style="fill:#75bf8c"
         d="m 16.72,291.31015 c -1.663363,-0.17971 -1.670597,-0.30008 -0.134706,-2.2414 1.620537,-2.04831 3.268074,-3.14526 6.94834,-4.62628 5.382648,-2.16609 9.497404,-6.03594 8.466366,-7.96246 -0.440359,-0.82282 -0.493451,-0.81939 -5.259804,0.33995 -2.215863,0.53898 -4.494897,0.93498 -5.064519,0.88 l -1.035677,-0.0999 1.44,-1.56273 c 5.286564,-5.73716 11.765039,-8.59589 21.853527,-9.64321 17.846971,-1.85274 23.714014,-9.5786 22.299972,-29.3651 -0.345479,-4.83425 -0.428482,-5.47467 -2.223495,-17.15564 -1.386021,-9.01946 -3.21359,-22.3986 -5.140654,-37.63332 -0.690138,-5.456 -1.834071,-14.06607 -2.542073,-19.13349 C 55.619275,158.03911 55.04,153.49915 55.04,153.01773 c 0,-3.14523 -0.976898,-2.98958 -10.894456,1.73592 -17.260976,8.22447 -33.223288,14.18996 -40.0277301,14.9593 l -1.8021862,0.20376 -0.3969253,-0.47827 -0.3969253,-0.47826 1.0791115,-1.78094 c 2.6743554,-4.4137 12.0244474,-11.90533 19.3435024,-15.49871 4.71958,-2.31714 5.920521,-3.53541 4.754856,-4.82346 -0.776252,-0.85774 -2.149741,-0.7702 -3.745606,0.23874 -15.9067385,10.05658 -18.9462411,6.99337 -5.405549,-5.44771 5.834905,-5.36107 5.555232,-4.92523 4.023494,-6.27012 -1.568733,-1.37736 -1.539866,-1.40787 4.388668,-4.63809 6.966758,-3.79592 18.437273,-10.37523 26.519746,-15.21133 l 6.56,-3.92514 3.84,0.71184 c 11.676225,2.16447 14.097935,3.87069 13.751804,9.68884 -0.355102,5.96895 0.346914,6.53678 4.445641,3.59591 2.910219,-2.08812 5.645767,-1.10611 9.802555,3.51893 l 0.8,0.89011 -2.326884,-0.20739 c -6.034332,-0.53785 -9.219949,3.08062 -5.708451,6.4841 l 1.078007,1.04484 -1.075209,1.59776 c -1.681649,2.49892 -1.889732,3.61667 -1.867511,10.03165 l 0.01995,5.76 2.127712,12.8 c 2.98884,17.98042 4.650564,30.06697 6.159341,44.8 0.450595,4.4 1.023714,9.728 1.273599,11.84 2.561739,21.65158 1.524513,31.2693 -4.572642,42.4 -9.951913,18.16778 -24.545662,24.2317 -59.587914,24.75966 -5.016,0.0756 -9.732,0.0713 -10.48,-0.01 z m 115.04133,-28.6436 c -3.97421,-0.84873 -17.38406,-10.12665 -19.04724,-13.17829 l -0.54951,-1.00825 -0.056,-9.28 c -0.20508,-33.99568 1.19052,-51.79846 5.64421,-72 3.0227,-13.71067 3.6323,-18.50381 2.77918,-21.85179 l -0.26802,-1.05178 2.10654,0.21582 2.10653,0.21582 1.47219,-0.56223 c 0.8097,-0.30923 2.34054,-1.33705 3.40185,-2.28404 2.06075,-1.83877 2.05157,-1.83515 4.72892,-1.8633 l 1.76,-0.0185 0.0835,-0.8 c 0.0591,-0.56561 -1.08945,-2.61805 -3.92,-7.00515 C 129.8016,128.78203 128,125.80752 128,125.58483 c 0,-1.15946 8.09462,-7.56714 10.31443,-8.16487 l 1.24861,-0.33621 1.40654,0.68089 c 5.67458,2.74702 13.41906,19.07793 18.23289,38.44796 2.01437,8.10546 2.56117,10.92921 4.32741,22.34741 4.56874,29.53536 11.06334,50.56617 19.7255,63.8751 l 0.43939,0.67511 -2.98221,2.85101 c -4.22248,4.03672 -8.9993,6.43412 -11.09246,5.56711 -1.49217,-0.61808 -5.35823,-8.09505 -9.6472,-18.65768 -3.10809,-7.65445 -1.89004,-7.79759 -12.24327,1.43882 -3.69274,3.2944 -3.59204,3.27232 -5.5206,1.21053 -1.45863,-1.5594 -2.69304,-2.05016 -3.17899,-1.26388 -0.11426,0.18487 -0.1927,4.10887 -0.17431,8.72 0.0634,15.89722 -1.71707,20.83881 -7.0944,19.69042 z m 14.30031,-51.75736 c 6.82044,-6.40084 6.66678,-4.37444 2.12593,-28.03643 -0.53964,-2.81201 -1.37861,-7.34475 -1.86437,-10.07275 l -0.8832,-4.96 -0.71948,-0.10219 c -0.91206,-0.12954 -1.09704,0.3379 -2.5097,6.34219 -3.35473,14.25865 -5.1558,31.97566 -3.98028,39.15358 0.66033,4.03205 1.24189,3.85943 7.8311,-2.3244 z M 302.56,211.93231 c -7.28313,-0.99999 -7.76726,-1.27189 -8.17169,-4.58939 -0.66292,-5.43788 -1.66705,-7.42364 -4.3044,-8.51234 l -1.43065,-0.59057 -2.3e-4,-11.2 c -7.4e-4,-35.22573 -2.22524,-66.58455 -5.7429,-80.95786 -1.1197,-4.57513 -1.51449,-3.89326 4.25283,-7.345418 6.49857,-3.889858 11.10232,-6.013856 13.42386,-6.193263 l 1.86681,-0.144266 1.97997,2.040401 c 4.50305,4.640488 19.09393,24.627996 39.0407,53.480406 l 2.15698,3.12 h 0.7944 c 1.17842,0 1.22821,-0.49805 0.65001,-6.5018 -0.70542,-7.32489 -2.30724,-26.79617 -2.79524,-33.97821 -0.21526,-3.168 -0.40164,-11.087996 -0.41419,-17.599996 l -0.0228,-11.84 0.59135,-3.2 c 0.32524,-1.760001 1.15102,-5.756011 1.83506,-8.880023 0.68405,-3.124013 2.32592,-10.946896 3.64861,-17.384185 2.64865,-12.890473 2.48586,-12.359304 4.28661,-13.986177 4.33194,-3.913649 13.05815,-0.246331 17.31946,7.278757 1.43548,2.534937 3.01909,4.242038 4.16959,4.494729 1.30331,0.286255 1.33032,0.417203 0.61698,2.991361 -3.27528,11.819257 -5.51338,30.446876 -5.56117,46.285538 -0.031,10.287866 0.0541,11.554456 1.73184,25.760006 2.12024,17.95222 3.44747,41.85337 2.73986,49.34016 l -0.23253,2.46016 -0.8712,0.19135 c -0.47916,0.10524 -1.75465,0.24825 -2.83441,0.3178 -2.62958,0.16936 -2.94384,0.3877 -4.41133,3.06481 -1.57996,2.88229 -3.51,4.62712 -5.88428,5.31958 l -1.78789,0.52144 -1.76,-0.36429 c -7.7325,-1.6005 -30.15061,-23.61364 -40.86931,-40.13101 -1.06892,-1.6472 -1.57864,-2.16 -2.14701,-2.16 -1.44833,0 -1.54118,0.49924 -1.17224,6.30312 0.18799,2.95728 0.48793,8.18488 0.66655,11.61688 0.17861,3.432 0.61347,11.37749 0.96634,17.65665 0.35288,6.27916 0.64648,15.32887 0.65244,20.11046 l 0.0108,8.6938 -0.65383,1.35063 c -1.30753,2.701 -6.32236,3.98614 -12.33378,3.16076 z m 102.14214,-15.09936 c -1.86054,-4.00858 -3.50017,-8.71193 -4.71618,-13.52854 -2.04485,-8.09968 -2.36823,-10.59994 -2.86928,-22.1844 -0.44186,-10.21607 -0.85327,-16.03049 -1.51703,-21.44 -2.24983,-18.33592 1.03709,-46.504816 8.43542,-72.291467 2.84249,-9.907386 3.19847,-10.504742 7.57735,-12.715193 13.29035,-6.708948 21.31098,-0.249721 31.84626,25.646654 3.03409,7.457974 9.17332,26.106786 10.93649,33.221206 3.76434,15.18915 9.67059,32.47167 14.90698,43.6199 2.7799,5.91838 3.12378,7.1253 2.97236,10.43203 l -0.11451,2.50076 -1.04771,2.128 c -1.27324,2.58603 -3.70827,4.9225 -6.6284,6.36007 l -2.05943,1.01385 -1.15008,-0.21575 c -1.57758,-0.29596 -3.37685,-2.18268 -4.30812,-4.51751 -0.41737,-1.0464 -1.97434,-4.49455 -3.45993,-7.66255 -2.53175,-5.39893 -3.42821,-7.36911 -6.26097,-13.76 -0.62409,-1.408 -1.43207,-2.899 -1.7955,-3.31332 l -0.66079,-0.75332 -0.85733,0.21518 c -0.47153,0.11834 -6.15478,3.37512 -12.62943,7.23729 l -11.77211,7.02211 -0.19282,0.76827 c -0.10606,0.42255 0.0332,2.11276 0.30939,3.75603 2.43583,14.49108 -1.33257,25.90639 -10.0674,30.49641 -3.15273,1.65671 -3.166,1.65117 -4.87723,-2.03571 z m 14.81965,-43.31294 c 0.007,-3.83537 3.89754,-7.88325 14.00689,-14.57179 5.45756,-3.61082 5.35302,-3.45959 4.87733,-7.05633 -1.84833,-13.97537 -11.14585,-42.997 -14.42375,-45.022851 -2.37213,-1.46606 -6.72119,35.679351 -6.82525,58.294661 l -0.037,8.04369 0.6096,0.67631 c 0.95341,1.05775 1.79004,0.88797 1.79219,-0.36369 z M 98.72,111.54551 c -4.118316,-0.59768 -6.390365,-1.11091 -7.048566,-1.5922 l -0.57273,-0.41879 -0.150311,-4.94547 c -0.223156,-7.342216 1.425606,-18.578027 3.199412,-21.803021 l 0.740339,-1.346025 1.217024,-0.100575 c 1.598528,-0.132102 6.459322,1.31998 14.547192,4.345731 l 6.49236,2.428856 -0.21582,0.502994 c -2.12277,4.947377 -3.04525,9.797376 -3.12167,16.41243 -0.0322,2.78407 -0.19853,5.16965 -0.37266,5.3435 -1.25841,1.25639 -9.57206,1.91889 -14.71457,1.17257 z m 45.6,-3.77394 c -3.79168,-3.54184 -7.34305,-5.2223 -10.54672,-4.99057 l -1.84371,0.13336 -0.19791,-3.234615 c -0.3429,-5.604184 0.56879,-14.350471 1.72008,-16.501681 0.56958,-1.064271 2.67487,-0.788742 7.73122,1.011818 2.51737,0.896433 6.08889,2.133422 7.9367,2.748866 l 3.35966,1.118988 2.80836,-0.108866 2.80835,-0.108866 -0.20482,0.96 c -0.71572,3.354653 -10.35009,20.669106 -11.47804,20.627806 -0.18324,-0.007 -1.12517,-0.75202 -2.09317,-1.65624 z M 391.36,35.81665 c -5.5325,-0.416035 -11.82758,-1.427086 -12.39053,-1.99004 -1.95659,-1.95659 -1.31909,-12.77632 1.23443,-20.95075 l 1.0259,-3.2841401 0.66277,0.2103551 c 0.36452,0.1156952 4.56247,1.971811 9.32878,4.124702 4.76631,2.152891 8.98978,4.017104 9.38548,4.142695 0.5133,0.162916 0.65596,0.380528 0.49785,0.759438 -1.01615,2.435233 -1.17367,3.671717 -1.21819,9.562196 l -0.0465,6.151105 -0.64,0.624002 c -0.83595,0.815055 -3.12521,1.004981 -7.84,0.650437 z m 44.96,-3.079267 c -5.40012,-1.251968 -18.9183,-7.011723 -20.46325,-8.718872 l -0.57454,-0.634861 2.87342,-3.771825 c 5.736,-7.529431 9.15807,-13.4228455 9.56194,-16.4673329 0.13435,-1.0127662 0.35908,-1.544492 0.65278,-1.544492 1.37657,0 6.78412,3.3718329 13.06965,8.1494692 2.112,1.6053327 4.24729,3.1751487 4.7451,3.4884797 0.4978,0.313331 0.83019,0.738973 0.73864,0.945872 -0.0915,0.206899 -1.30423,2.96818 -2.69485,6.13618 -4.17061,9.501164 -5.93358,12.709759 -6.92467,12.60288 C 437.1149,32.902465 436.672,32.81899 436.32,32.737383 Z"
         id="path4" />
      <path
         style="fill:#44c06a"
         d="m 202.23604,266.39579 -0.76112,-0.81017 0.40661,-1.96858 c 1.24949,-6.04945 12.19029,-21.23176 19.99545,-27.74725 1.42158,-1.1867 2.54087,-2.38821 2.65744,-2.85268 0.65873,-2.6246 -6.52588,-46.20181 -9.82254,-59.5771 C 207.63326,144.72036 196.42693,119.01304 180.95425,96.000004 168.60849,77.637744 146.16574,48.469722 133.43424,34.240002 129.00139,29.2855 127.81699,27.0014 129.12,25.920001 c 0.67008,-0.556115 0.59844,-2.003123 -0.14603,-2.949561 -3.5525,-4.516269 -2.12975,-7.704624 4.46603,-10.008264 3.8454,-1.343046 4.48,-1.872744 4.48,-3.7394617 0,-2.5319189 3.79307,-4.6866412 6.08803,-3.4584158 0.33328,0.1783641 3.59603,4.0303643 7.25056,8.5600005 20.34243,25.213586 34.2805,43.539271 44.11014,57.995704 12.57636,18.496051 28.07147,23.401715 47.96258,15.184683 l 0.6113,-0.252531 -1.0913,2.037089 c -3.97259,7.415435 -12.0765,11.103626 -23.77188,10.818876 L 214.63887,100 l -0.3113,0.48629 c -0.23413,0.36574 0.60402,2.15863 3.38114,7.2326 3.12311,5.70611 6.60106,12.87015 8.64196,17.80112 0.33176,0.80155 0.70208,1.2 1.11529,1.2 h 0.61861 l 0.86571,-2.8 c 4.7934,-15.50349 15.39379,-35.035598 28.43833,-52.400007 7.23581,-9.632045 16.42393,-20.780438 21.73273,-26.369364 l 2.25061,-2.369364 0.51402,0.329235 c 1.9313,1.237002 -0.9428,8.225704 -6.46678,15.724695 -1.5763,2.139881 -1.80413,3.039304 -1.02937,4.063636 1.05876,1.399797 -0.50581,6.23434 -3.06208,9.46189 l -1.016,1.282809 0.37368,1.247248 0.37369,1.247247 -1.16611,2.330985 c -0.64137,1.282041 -2.90149,5.205145 -5.02251,8.718009 -13.34512,22.102451 -24.28682,54.542031 -24.28959,72.012981 l -7.6e-4,4.8 1.45475,9.92 c 0.80012,5.456 1.89885,13.952 2.44164,18.88 0.54278,4.928 1.26214,11.192 1.59856,13.92 0.33642,2.728 0.76924,6.60085 0.96183,8.60634 0.53716,5.59349 0.68462,5.68575 5.22386,3.26838 1.61657,-0.86091 3.484,-1.73765 4.14984,-1.94832 l 1.21061,-0.38304 1.54138,0.55427 1.54137,0.55427 1.80628,-0.85451 c 6.07307,-2.87302 10.95505,-1.24606 8.52974,2.84261 -1.17266,1.9769 -1.17504,2.12825 -0.054,3.42887 1.96253,2.27688 1.70699,2.82886 -2.43099,5.25111 -4.82425,2.82398 -24.06869,14.49304 -39.27502,23.81482 -23.96534,14.69121 -25.917,15.74058 -27.04396,14.54098 z"
         id="path3" />
      <path
         style="fill:#010101"
         d="m 21.68,297.38515 c -2.575998,-0.16026 -2.625363,-0.31108 -0.893447,-2.72967 l 1.266554,-1.76872 -3.850328,-0.15858 c -2.907456,-0.11974 -3.972948,-0.28119 -4.351062,-0.65931 l -0.500734,-0.50073 0.86545,-1.47678 c 1.935455,-3.30261 4.155732,-5.09009 8.549333,-6.88282 l 2.765766,-1.12853 2.466652,-2.32 c 1.356658,-1.276 2.340451,-2.32 2.186206,-2.32 -0.154246,0 -2.049553,0.432 -4.211795,0.96 -4.612627,1.12636 -4.87541,1.14324 -5.825385,0.37399 l -0.723692,-0.58601 0.224606,-0.8949 c 1.264984,-5.0401 12.699312,-11.00674 23.315066,-12.16624 21.483041,-2.34646 25.044194,-10.16678 19.893772,-43.68684 -1.599703,-10.41121 -2.961903,-20.34447 -5.112404,-37.28 -1.424105,-11.21505 -3.351051,-25.20429 -3.494055,-25.36614 -0.04186,-0.0474 -1.933344,0.79539 -4.203304,1.87281 -29.997997,14.23828 -47.4394196,18.87834 -42.6654562,11.35058 l 0.9817428,-1.54805 -1.2217428,0.21465 c -0.6719585,0.11805 -2.174473,0.30175 -3.338921,0.40822 l -2.1171781,0.19357 -0.6828219,-0.68282 c -2.2321031,-2.2321 1.7870778,-7.43865 11.3171782,-14.66056 1.408,-1.06698 2.848,-2.26909 3.2,-2.67135 l 0.64,-0.73139 -0.64,0.19834 c -0.352,0.10908 -1.648,0.55997 -2.88,1.00197 -3.7903021,1.35984 -5.7066666,0.88572 -5.7066666,-1.41187 0,-1.9782 4.0119036,-6.6696 11.2910576,-13.20341 l 2.70439,-2.42748 -1.02439,-0.95692 c -2.025662,-1.89226 -1.539648,-2.44624 5.535609,-6.30981 7.198997,-3.93115 15.674574,-8.77818 24.712114,-14.13243 9.638159,-5.71008 8.31848,-5.29763 13.499462,-4.21916 9.996201,2.08081 14.120324,4.16179 14.635738,7.38501 l 0.199484,1.24751 1.193872,0.60907 c 0.656629,0.33498 1.635893,0.981 2.176142,1.43559 0.684233,0.57575 1.206939,0.77077 1.72273,0.64276 1.482583,-0.36795 9.218394,5.93071 9.222645,7.50928 0.0015,0.55489 0.330816,1.03714 1.04,1.52293 1.743661,1.1944 3.791096,3.3603 3.686038,3.89931 l -0.09936,0.50979 -3.194431,0.007 c -5.7276,0.0118 -7.568848,2.2129 -4.571348,5.4648 0.950307,1.03096 1.254448,1.57662 1.04,1.86585 -1.525468,2.05741 -2.113733,3.19801 -2.56987,4.98278 l -0.531592,2.08 0.165328,5.12 0.165328,5.12 1.935821,11.52 c 3.096532,18.42735 4.531797,29.15958 7.082554,52.96 2.992044,27.91793 2.548728,33.68029 -3.532765,45.92 C 83.302452,291.23851 60.183019,299.78049 21.68,297.38515 Z m 17.04,-6.21784 c 27.455134,-1.80557 40.624546,-8.87434 49.123408,-26.3673 5.84487,-12.03033 6.243656,-17.3462 3.336798,-44.48 -2.665454,-24.88044 -3.981662,-34.76253 -7.075112,-53.12 l -1.941256,-11.52 -0.159835,-5.78768 -0.159836,-5.78768 0.549738,-1.89232 c 0.302357,-1.04078 0.964387,-2.50705 1.471179,-3.25838 l 0.92144,-1.36606 -1.113262,-1.45845 c -1.917224,-2.5117 -1.426744,-4.71015 1.28161,-5.74448 l 1.435944,-0.5484 2.564592,0.22372 2.564592,0.22371 v -0.49495 c 0,-0.52595 -2.967249,-3.10118 -5.902945,-5.12307 l -1.76987,-1.21895 -2.238261,1.55649 c -1.231043,0.85607 -2.58692,1.76553 -3.013059,2.02102 l -0.774798,0.46452 -0.556138,-0.46155 -0.556138,-0.46156 0.20848,-4.36729 0.20848,-4.3673 -1.131773,-0.99371 c -2.169609,-1.90494 -5.743184,-3.21835 -12.756951,-4.6886 l -4.050771,-0.84914 -8.073128,4.78797 c -9.811458,5.81894 -17.486624,10.2127 -24.713128,14.1474 -2.992,1.62908 -5.650031,3.15977 -5.906736,3.40152 l -0.466735,0.43954 1.223143,1.25262 c 1.464533,1.49981 1.505952,1.35954 -1.089672,3.69036 -16.7729163,15.06174 -15.7123718,18.97387 2.328074,8.58778 2.78032,-1.60066 3.905608,-1.66116 4.264979,-0.22932 0.293587,1.16974 -0.422539,1.7975 -4.331417,3.79694 -10.328909,5.28337 -21.8139009,15.37793 -20.7248935,18.21584 1.0442032,2.72115 21.3878605,-4.27379 43.9351445,-15.10661 8.604587,-4.13406 8.823,-4.14268 9.227223,-0.36393 0.122377,1.144 0.722787,5.608 1.334245,9.92 0.611457,4.312 1.679768,12.34205 2.374023,17.84456 1.904227,15.09248 4.045126,30.7543 5.301567,38.78379 2.262412,14.45831 2.701269,19.90239 2.077497,25.77165 -1.42295,13.38897 -6.818256,18.34798 -21.597624,19.85111 -9.844573,1.00124 -15.80215,3.46963 -21.476556,8.89832 -3.473604,3.32319 -2.907557,3.67579 3.420333,2.13057 5.481762,-1.33859 6.448508,-1.18269 5.353492,0.86337 -1.457463,2.72329 -3.86138,4.52784 -8.411197,6.31402 -3.801794,1.49252 -8.19489,5.16115 -8.19489,6.84346 0,0.67466 13.592564,0.68984 23.68,0.0265 z M 207.78092,272.9548 c -1.31534,-0.52436 -1.77049,-2.64067 -1.08326,-5.0369 0.35644,-1.24282 0.4242,-1.23027 -1.305,-0.24174 -3.98607,2.27872 -6.18376,-0.96939 -4.28889,-6.33885 2.40922,-6.82698 13.49972,-21.4035 20.77045,-27.29913 l 1.55423,-1.26028 -0.5448,-4.30894 c -6.47854,-51.24055 -15.52714,-83.075 -32.65027,-114.86895 -9.12135,-16.936398 -38.70536,-57.030918 -58.08408,-78.720008 -4.63514,-5.18776 -5.69252,-7.528072 -4.29969,-9.516615 l 0.48961,-0.699019 -0.9432,-1.692184 c -3.34226,-5.996289 -1.61871,-8.9949 6.75374,-11.750103 l 2.14975,-0.707441 0.21351,-1.1773199 c 0.77323,-4.2636599 5.404,-6.844541 8.3575,-4.6579108 4.0409,2.9916877 42.69478,52.5959657 55.86818,71.6952807 5.39695,7.82471 15.69242,13.871776 23.60175,13.862533 2.6353,-0.0031 10.01201,-1.396469 14.53955,-2.746383 5.34715,-1.594284 5.2605,-1.576967 5.89815,-1.178744 l 0.59378,0.370818 1.21206,-1.981455 c 6.2878,-10.279164 20.4207,-28.41589 32.05914,-41.141457 2.10651,-2.303276 3.05622,-2.576855 4.4434,-1.28 l 0.81293,0.76 -0.11623,2.08997 -0.11624,2.08997 -1.35349,2.820762 c -0.74443,1.551419 -1.3535,2.862396 -1.3535,2.913283 0,0.05089 1.116,-1.077251 2.48,-2.506972 3.40627,-3.570394 3.4262,-3.580815 4.60075,-2.406263 l 0.68075,0.680749 -0.17222,1.899317 c -0.2153,2.374355 -2.19926,6.49228 -5.45238,11.316997 -1.26329,1.873605 -2.5054,3.737374 -2.76023,4.141709 l -0.46333,0.735155 0.58698,1.301687 c 0.92664,2.054918 -0.28555,5.94769 -3.05137,9.799029 l -1.00655,1.401595 0.37314,1.061507 0.37315,1.061507 -1.59571,3.2 c -0.87765,1.76 -2.98415,5.432 -4.68112,8.16 -12.66233,20.355546 -24.17756,54.311906 -24.25375,71.520006 l -0.0213,4.8 1.50206,10.24 c 0.82613,5.632 2.00055,14.704 2.60983,20.16 2.1807,19.52796 1.72777,17.4817 3.65216,16.49995 1.87871,-0.95845 3.86321,-1.17008 5.07859,-0.54159 l 0.98734,0.51058 1.74997,-0.80117 c 3.6968,-1.69245 8.31142,-1.80001 10.16892,-0.23702 l 1.00456,0.84528 -0.15639,1.46198 c -0.086,0.8041 -0.26124,1.71399 -0.38938,2.02199 l -0.23298,0.56 h 1.65013 c 3.75288,0 4.67404,1.58434 2.89143,4.97313 l -0.9669,1.83812 0.5669,0.79447 c 2.47356,3.46646 2.22557,3.92509 -4.06495,7.51749 -3.8942,2.22391 -10.43467,6.19099 -38.72814,23.49032 -21.87149,13.37277 -24.83948,15.01933 -26.13908,14.50126 z m 1.59614,-8.91156 c 3.02662,-1.73622 12.27094,-7.30114 20.54294,-12.36647 24.91257,-15.25515 33.41913,-20.41281 37.23481,-22.57606 5.54547,-3.14393 6.07278,-3.90307 4.2182,-6.07279 -1.15821,-1.35501 -1.18917,-1.89704 -0.20624,-3.61093 1.24312,-2.16757 1.29684,-2.66247 0.38765,-3.57165 l -0.80533,-0.80533 -2.33454,0.008 c -1.71066,0.006 -2.93317,0.23055 -4.57455,0.84005 -2.27187,0.84362 -3.31146,0.94494 -5.94486,0.57937 l -1.46486,-0.20335 -3.89754,2.01401 -3.89754,2.014 -0.51317,-0.51317 c -0.37136,-0.37136 -0.62993,-1.73824 -0.93566,-4.94617 -0.23237,-2.43815 -0.64881,-6.26015 -0.92543,-8.49332 -0.27661,-2.23318 -0.9375,-7.99318 -1.46864,-12.8 -0.53113,-4.80683 -1.6177,-13.27568 -2.41459,-18.81968 -2.06252,-14.34895 -2.13714,-17.80974 -0.5803,-26.91239 2.91079,-17.01895 13.41154,-44.61272 22.70191,-59.655866 1.51892,-2.459463 3.56531,-5.91175 4.54754,-7.67175 l 1.78586,-3.200001 0.0236,-2.098643 0.0236,-2.098643 0.86931,-1.0332 c 1.05464,-1.253476 2.63071,-4.487407 3.17044,-6.50541 l 0.39585,-1.480016 -0.5378,-0.820786 c -0.90722,-1.384597 -0.66174,-2.330279 1.3274,-5.113498 3.61709,-5.061077 6.3032,-10.192901 6.64408,-12.693547 l 0.19681,-1.443743 -0.67043,-0.796257 -0.67043,-0.796258 -2.49098,2.56 c -21.01521,21.597521 -41.81346,53.782346 -49.52576,76.640008 -0.97341,2.88499 -1.84196,4.96 -2.07613,4.96 -0.52279,0 -0.55915,-0.069 -3.2039,-6.08 -1.239,-2.816 -3.93927,-8.216 -6.0006,-12.00001 -4.9704,-9.124223 -4.96877,-8.835884 -0.0466,-8.27963 10.41547,1.17705 20.6993,-3.216818 24.54044,-10.485159 1.40686,-2.662123 1.40194,-2.667217 -1.62418,-1.680905 -4.73995,1.544906 -14.32296,3.490729 -17.1394,3.480142 -8.47707,-0.03187 -20.99382,-8.039856 -27.25061,-17.434445 C 185.45481,57.063974 146.39146,6.5631226 143.69935,5.4480151 c -2.41352,-0.9997143 -5.52502,1.0087726 -5.98108,3.8608209 -0.28985,1.812623 -0.86636,2.301465 -3.90941,3.314893 -3.09693,1.031373 -5.88252,2.78598 -6.63178,4.177281 l -0.54492,1.011843 0.70425,2.116264 c 0.38734,1.163945 0.95859,2.448053 1.26945,2.853574 0.96545,1.259444 1.04549,1.877429 0.38755,2.992551 l -0.61934,1.049693 0.33278,1.311043 c 0.25468,1.003332 1.49648,2.643351 5.2909,6.987533 17.14747,19.631926 40.96414,51.231773 52.15311,69.196489 15.00112,24.08541 26.67354,55.72537 31.93319,86.56001 0.63044,3.696 1.43081,8.304 1.77859,10.24 1.69071,9.41181 4.45736,28.55454 4.45736,30.8409 v 1.56586 l -2.48,2.14522 c -11.14113,9.63716 -22.67681,27.66499 -19.76274,30.88499 0.92172,1.0185 1.47369,0.82842 7.2998,-2.51374 z m 19.76829,-144.92323 c 0.94698,-2.8507 3.55806,-9.18995 4.79255,-11.63546 1.1658,-2.30944 1.15292,-2.33712 -0.85544,-1.83794 -0.89708,0.22297 -3.90178,0.39795 -7.05571,0.41088 -5.51129,0.0226 -6.24181,0.13878 -5.62562,0.89478 0.41364,0.5075 5.16549,9.162 6.66055,12.13078 1.34409,2.66901 1.21012,2.66664 2.08367,0.037 z M 133.2634,267.19664 c -3.39789,-1.7114 -7.25879,-4.35353 -11.6634,-7.98162 -1.496,-1.23226 -4.04574,-3.32515 -5.66609,-4.65086 -5.75427,-4.70794 -5.47319,-3.40596 -5.18236,-24.00415 0.50156,-35.52302 1.35516,-44.64749 6.16687,-65.92 2.27334,-10.05042 2.56166,-12.14847 2.34117,-17.03637 l -0.1911,-4.23636 0.64889,-0.34728 c 0.47384,-0.25359 1.06479,-0.24069 2.1905,0.0478 l 1.5416,0.39511 1.55526,-0.43311 c 1.03978,-0.28956 2.08557,-0.9284 3.15526,-1.92743 2.01305,-1.88009 2.82256,-2.31504 4.70922,-2.53024 l 1.50921,-0.17214 -3.55607,-5.44 c -5.18987,-7.93935 -5.11888,-7.46168 -1.6019,-10.77942 8.31775,-7.84654 11.8299,-8.13865 16.94144,-1.40902 0.81397,1.07164 2.30439,2.84072 3.31204,3.9313 8.29084,8.97311 15.78748,30.81592 19.9669,58.17714 4.39232,28.75497 10.43108,48.99866 18.70024,62.68869 2.01801,3.34091 2.1049,2.86162 -1.06223,5.85957 -7.31554,6.92477 -12.36421,8.11323 -14.78501,3.4804 l -0.93384,-1.78714 -0.96,-0.002 c -2.40049,-0.005 -3.97195,-2.27309 -8.50601,-12.27732 -1.36655,-3.01524 -2.60374,-5.44234 -2.74931,-5.39355 -0.14557,0.0488 -2.23645,1.81278 -4.6464,3.92 -5.1326,4.48786 -5.27652,4.53067 -7.44328,2.21423 -2.1582,-2.30729 -2.10715,-2.49944 -2.21608,8.34091 l -0.098,9.75616 -0.69716,2.68837 c -1.26794,4.88939 -2.67266,6.43163 -5.85811,6.43163 h -1.73882 z m 2.03815,-4.80623 c 1.29627,-0.79031 2.34957,-2.98306 3.1465,-6.5504 l 0.5719,-2.56 0.0235,-9.44 0.0235,-9.44 0.74839,-0.10774 c 0.5515,-0.0794 1.19199,0.33034 2.43445,1.55737 2.0511,2.02562 1.23506,2.3774 7.81651,-3.36963 7.26802,-6.34655 7.12184,-6.29404 8.32556,-2.99081 2.49019,6.8336 8.68452,19.91122 10.16983,21.47081 l 0.83809,0.88 1.30013,-0.008 c 2.8065,-0.0164 6.43198,-2.11524 10.58013,-6.12498 l 2.56,-2.47458 -0.88897,-1.53642 c -9.29382,-16.06259 -14.62309,-33.67808 -19.29451,-63.77643 -4.34443,-27.99154 -11.77425,-49.62631 -19.92674,-58.02428 -4.12738,-4.25167 -6.3431,-3.69346 -14.19521,3.57621 -2.32181,2.14958 -2.5164,1.42114 2.41759,9.05023 2.22631,3.44239 4.04784,6.42008 4.04784,6.6171 0,0.65836 -1.14048,1.01608 -2.23692,0.70162 -1.38139,-0.39618 -2.5535,0.12606 -4.86745,2.1687 -2.23432,1.97236 -3.47443,2.40819 -6.43898,2.26294 l -2.29665,-0.11252 0.10019,0.64 c 0.76087,4.86048 0.29042,8.90164 -2.47731,21.28 -4.63495,20.72932 -5.30492,27.96141 -5.75105,62.08 -0.30603,23.40428 -0.7389,21.1878 5.01287,25.66759 10.56616,8.22949 15.22194,10.41314 18.25685,8.56281 z m 3.66583,-47.2561 -0.56738,-0.86569 -0.1142,-6.38135 c -0.16149,-9.02388 0.60617,-16.26713 3.0234,-28.52726 1.67167,-8.47864 2.51634,-11.36 3.33019,-11.36 0.67472,0 0.57811,-0.36823 1.93105,7.36 0.5392,3.08 1.39823,7.76 1.90897,10.4 3.93027,20.3156 4.05395,18.76742 -1.95659,24.49204 -6.4872,6.17861 -6.64078,6.27785 -7.55544,4.88226 z m 8.41199,-7.3743 c 2.19678,-2.04541 3.00902,-3.01089 3.01392,-3.58252 0.0106,-1.23487 -2.90378,-18.06806 -3.17823,-18.35721 -0.66093,-0.69634 -3.21074,17.47121 -3.21397,22.89973 -0.001,2.3073 -0.18767,2.36025 3.37828,-0.96 z M 308.32,218.05195 c -7.44118,-1.05282 -9.12,-1.72207 -9.12,-3.63562 0,-1.48872 -0.28205,-1.72075 -2.72,-2.2377 -2.25347,-0.47782 -2.97508,-1.02018 -3.16998,-2.38255 -0.0784,-0.54784 -0.30908,-2.21309 -0.51266,-3.70056 -0.54802,-4.00405 -1.61194,-5.6854 -3.97247,-6.27786 -1.35757,-0.34073 -1.37854,-0.56311 -1.56724,-16.61765 -0.45793,-38.96176 -2.24615,-62.99731 -5.72104,-76.89664 l -0.98418,-3.93664 0.35823,-0.78622 c 0.89005,-1.953462 15.32332,-9.88784 19.14782,-10.526111 4.46002,-0.744331 12.30944,8.778512 40.74021,49.425611 5.57653,7.97269 5.24838,7.61648 5.01138,5.44 -0.23671,-2.17371 -2.27844,-26.71731 -2.82174,-33.92 -0.22041,-2.92198 -0.40499,-11.13934 -0.4133,-18.400006 l -0.015,-13.12 0.56773,-3.040001 c 0.31225,-1.672 1.13558,-5.632 1.82962,-8.8 0.69404,-3.168 2.27432,-10.728 3.51172,-16.800001 2.85524,-14.010751 3.19753,-14.85777 6.67019,-16.505652 4.67103,-2.216549 12.24464,1.057057 16.39464,7.086391 0.49242,0.715407 1.77073,2.217894 2.8407,3.338861 1.06997,1.120967 1.9454,2.155634 1.9454,2.299261 0,0.143627 0.19368,0.261139 0.4304,0.261139 0.69467,0 1.4896,1.098871 1.4896,2.059148 0,1.300689 1.70552,3.290903 3.2052,3.740215 1.7039,0.510504 1.71514,0.645887 0.46745,5.634057 -4.94967,19.788471 -6.41676,43.672558 -3.97585,64.726588 0.35708,3.08 0.924,7.9833 1.25983,10.89622 1.21916,10.57472 2.01178,24.27721 2.04841,35.41167 l 0.035,10.62789 -0.54198,0.54266 c -0.37905,0.37953 -1.34658,0.60657 -3.21855,0.75525 -3.28942,0.26126 -3.03023,0.0907 -4.82157,3.17364 -4.62164,7.95409 -11.44196,7.50448 -21.82157,-1.4385 -1.41002,-1.21486 -3.78602,-3.23815 -5.28,-4.49621 -5.8886,-4.95868 -17.83425,-17.74716 -24.0937,-25.79363 -2.53855,-3.26329 -2.53893,-3.2635 -2.30713,-1.27899 0.0976,0.836 0.46733,7.136 0.82152,14 0.35418,6.864 0.8537,16.08 1.11002,20.48 0.25633,4.4 0.46761,11.96549 0.46951,16.81219 l 0.003,8.8122 -0.72,1.42522 c -1.46635,2.9026 -6.81846,4.45468 -12.56,3.64233 z m 3.28616,-6.37966 c 4.38629,-1.30259 5.22694,-8.75579 3.6084,-31.99228 -0.18389,-2.64 -0.62247,-10.2 -0.97462,-16.8 -0.35216,-6.6 -0.73358,-13.54349 -0.84761,-15.42998 -0.31514,-5.21357 0.53734,-5.78944 3.05255,-2.06207 7.52825,11.15638 24.21818,29.48739 32.60924,35.81562 8.61769,6.49914 14.45282,5.84873 18.48953,-2.06093 0.985,-1.93003 1.08723,-1.98325 4.22429,-2.19914 1.89868,-0.13067 2.80414,-0.33852 3.2,-0.73458 l 0.55206,-0.55234 -0.0477,-9.98829 c -0.0651,-13.62484 -0.97321,-26.5498 -3.1187,-44.38829 -2.72555,-22.661456 -1.28414,-47.612253 3.91749,-67.811622 l 0.9285,-3.60561 -1.31978,-0.57282 c -1.59893,-0.693979 -2.15243,-1.294638 -4.46883,-4.849572 -5.1771,-7.9452 -13.0457,-10.95138 -17.59952,-6.723853 -1.48641,1.37991 -1.69929,2.083367 -3.9,12.887367 -1.16022,5.695857 -2.82923,13.66228 -3.70891,17.703164 -0.87969,4.040883 -1.83104,8.792883 -2.11412,10.56 l -0.51469,3.21294 0.0493,11.146479 c 0.058,13.111007 1.5343,35.939327 3.52712,54.538997 l 0.25536,2.38334 -0.44559,0.4456 c -0.91383,0.91382 -0.5657,1.29176 -5.77963,-6.27441 C 320.77788,114.71323 306.13838,94.961943 303.04,92.862041 l -1.12,-0.759072 -1.56426,0.145797 c -2.64148,0.246199 -17.79311,8.298134 -18.35109,9.752214 -0.10161,0.26479 0.26306,2.37089 0.81038,4.68023 3.36281,14.18884 5.09311,37.98643 5.72114,78.68539 l 0.20133,13.04659 1.34596,0.59538 c 2.48368,1.09865 3.41205,2.95141 4.02882,8.04039 0.44589,3.67901 0.29821,3.51386 3.84253,4.29712 5.32101,1.17589 10.38287,1.29685 13.65135,0.32621 z m 99.13801,-6.31228 c -0.25883,-0.396 -0.83195,-1.5381 -1.27362,-2.53801 l -0.80302,-1.818 -1.1291,0.31176 c -4.63163,1.27885 -10.84909,-19.08928 -11.68385,-38.27575 -0.38215,-8.78343 -0.87557,-16.62128 -1.30944,-20.8 -0.92401,-8.89922 -1.01614,-10.98734 -0.84009,-19.04 0.40283,-18.42603 3.48637,-37.386146 9.36766,-57.600007 2.59152,-8.906994 3.19965,-9.814264 8.23625,-12.287693 9.00147,-4.420538 16.3608,-2.720134 22.31499,5.155971 0.76993,1.018447 2.21539,2.739757 3.21214,3.825133 7.03436,7.659852 18.1883,34.342316 23.65463,56.586596 3.51893,14.31968 9.57285,32.05665 14.64604,42.91039 3.08721,6.60488 3.35214,7.50466 3.21402,10.9159 l -0.11392,2.81371 -1.03136,2.18081 c -3.70057,7.82491 -12.76044,10.11975 -15.14906,3.83723 -0.15433,-0.40592 -0.5059,-0.73804 -0.78127,-0.73804 -1.79671,0 -4.48108,-2.49711 -5.45834,-5.07758 -0.30877,-0.81533 -2.03184,-4.65042 -3.82903,-8.52242 -1.7972,-3.872 -3.5914,-7.796 -3.98712,-8.72 -0.39572,-0.924 -0.7615,-1.68 -0.81285,-1.68 -0.25801,0 -21.1727,12.57101 -21.56524,12.96203 l -0.4574,0.45564 0.53278,3.45116 c 1.47436,9.55035 0.77599,16.58153 -2.26572,22.81117 -2.79617,5.72677 -10.99748,11.46661 -12.68808,8.88 z m -1.43528,-6.05492 c 9.08196,-4.49387 13.04025,-16.36385 10.50959,-31.51575 -0.21042,-1.25987 -0.29227,-2.65049 -0.1819,-3.09027 l 0.20069,-0.79959 10.16136,-6.06636 c 13.10516,-7.82382 13.67956,-8.14032 14.54945,-8.01693 0.9225,0.13085 0.70051,-0.31914 10.39148,21.06382 4.50155,9.9326 6.60767,10.90148 12.79151,5.88447 5.90681,-4.79225 6.33011,-9.72213 1.70047,-19.80447 -5.4402,-11.84756 -10.79982,-27.48169 -14.59023,-42.56 -7.71166,-30.677161 -19.94977,-56.688635 -28.66355,-60.922902 -7.32006,-3.557021 -18.35922,0.401781 -20.41997,7.322895 -0.34062,1.144 -1.13025,3.789527 -1.75472,5.878948 -7.68668,25.718696 -10.69239,51.936509 -8.47919,73.961059 0.57204,5.69265 0.75503,8.54973 1.60067,24.99126 0.56099,10.90725 2.51937,19.71698 6.53115,29.38022 2.48348,5.982 2.38783,5.90935 5.65319,4.2936 z m 8.59855,-45.62203 -0.70382,-0.88305 0.17732,-8.96 c 0.36158,-18.27057 3.93023,-53.705855 5.69318,-56.531061 0.9788,-1.568576 4.05528,4.773218 8.56272,17.651051 2.72849,7.79534 6.95481,26.29758 6.70331,29.34613 l -0.10015,1.21388 -5.1636,3.52 c -10.03189,6.83868 -13.15244,9.95449 -13.69333,13.67254 -0.27468,1.88811 -0.58278,2.09074 -1.47563,0.97051 z m 14.25006,-15.46487 c 2.63863,-1.7681 4.89081,-3.3865 5.00486,-3.59645 1.07831,-1.98518 -8.11167,-37.475354 -9.35778,-36.138213 -0.86212,0.92509 -4.43916,36.624103 -4.44352,44.346523 l -0.001,1.87005 2,-1.6336 c 1.1,-0.89848 4.15888,-3.08022 6.7975,-4.84831 z M 104.96,117.74689 c -7.804517,-0.95462 -9.28,-1.66237 -9.28,-4.45138 v -0.90284 l -1.52,-0.22678 c -4.339102,-0.64741 -4.404752,-0.79618 -4.380235,-9.92589 l 0.01976,-7.359996 0.849251,-4.33073 c 1.125661,-5.740271 1.990827,-8.43992 3.103321,-9.683547 l 0.917566,-1.025723 1.705167,0.05089 c 5.35878,0.159929 22.20131,6.878349 21.88872,8.731321 -0.10557,0.625785 -0.22605,1.412436 -0.26775,1.748115 l -0.0758,0.610325 2.39124,0.871074 c 3.10346,1.130521 3.15079,1.23199 1.96597,4.214614 -1.65107,4.156327 -2.34879,8.314007 -2.41992,14.420267 -0.0391,3.35919 -0.19279,5.4969 -0.4108,5.71491 -1.31033,1.31033 -9.37475,2.17062 -14.48649,1.54537 z m 6.1891,-6.34917 c 2.90813,-0.80759 2.74548,-0.42633 2.88808,-6.76949 0.13448,-5.981474 0.61527,-9.064416 2.01928,-12.948226 1.01186,-2.799017 1.24672,-4 0.78222,-4 -0.19468,0 -2.76702,-0.925925 -5.71632,-2.05761 -11.791685,-4.52463 -15.675006,-5.316886 -16.926417,-3.453244 -2.362339,3.518069 -4.632736,23.65505 -3.079219,27.3107 l 0.356904,0.83985 2.221955,0.54452 c 6.019551,1.47517 13.264997,1.69664 17.453517,0.5335 z m 37.74952,2.08127 c -1.44176,-1.28148 -3.52976,-2.8225 -4.64,-3.42448 L 142.24,108.96 h -2.72 c -3.16578,0 -3.18867,-0.0189 -3.1951,-2.6339 l -0.005,-1.9939 -0.72,-0.17465 c -0.396,-0.0961 -1.64891,-0.1348 -2.78425,-0.0861 l -2.06425,0.0885 -0.27784,-1.44 c -0.41755,-2.16418 -0.034,-12.846071 0.57426,-15.992866 1.30541,-6.753458 2.08339,-6.946382 12.63208,-3.13249 8.35809,3.021878 9.23282,3.237378 12.22808,3.012516 l 2.46808,-0.185284 0.49192,0.491921 c 0.64016,0.640163 0.60773,1.810515 -0.10753,3.880828 l -0.57856,1.674621 0.61512,0.195233 c 0.33832,0.107379 1.59748,0.09658 2.79812,-0.024 l 2.183,-0.21923 0.19624,0.618318 c 0.68809,2.16796 -10.49521,22.934483 -12.27025,22.784913 -0.10132,-0.009 -1.36384,-1.064 -2.8056,-2.34549 z m -1.24328,-5.23691 c 4.37952,-6.03488 11.61697,-20.038603 10.48741,-20.292058 -0.12251,-0.02749 -1.51875,-0.07785 -3.10275,-0.111916 l -2.88,-0.06193 -3.36,-1.138207 c -1.848,-0.626013 -5.41967,-1.871651 -7.93704,-2.768084 -8.36573,-2.979029 -8.92594,-2.259718 -9.25088,11.878174 l -0.16705,7.268051 2.35748,-0.0226 c 3.70299,-0.0356 7.5023,1.85205 10.98243,5.45643 1.57202,1.62814 1.53616,1.63074 2.8704,-0.20782 z M 391.84,41.412771 c -8.23711,-1.111459 -8.59412,-1.261396 -8.96988,-3.767143 l -0.21602,-1.440506 -1.32705,-0.204928 c -3.75093,-0.579232 -4.18394,-1.113764 -4.71184,-5.816466 -0.86478,-7.70371 2.19127,-21.8637276 4.71868,-21.8637276 0.59153,0 14.69818,6.0940236 20.26611,8.7548926 0.8433,0.403005 1.03551,1.510562 0.52225,3.00924 l -0.248,0.724132 2.74288,1.261217 c 1.50858,0.69367 2.74287,1.344353 2.74287,1.445963 0,0.10161 -0.31878,1.080203 -0.70841,2.174651 l -0.70841,1.989905 0.0564,5.44 c 0.0611,5.890473 -0.19425,7.547834 -1.27995,8.308285 l -0.70202,0.491716 -4.4888,-0.03772 C 397.05996,41.861532 393.6,41.650254 391.84,41.412771 Z m 7.11962,-5.744485 c 1.1215,-0.785528 1.41655,-2.598993 1.18518,-7.28445 l -0.20857,-4.223835 0.54371,-2.4 c 0.29904,-1.32 0.56538,-2.672132 0.59188,-3.004737 l 0.0482,-0.604737 -8.64,-3.889451 c -4.752,-2.139199 -9.24595,-4.131479 -9.98655,-4.427291 l -1.34655,-0.5378392 -1.10666,3.4320272 c -2.13814,6.630905 -2.94573,13.494378 -2.17105,18.451142 0.53101,3.397668 0.2704,3.291882 11.73081,4.761859 0.528,0.06772 2.69196,0.144711 4.8088,0.171081 l 3.8488,0.04795 z M 438.56,37.927173 c -9.48066,-2.918335 -19.11815,-7.717261 -18.53743,-9.230596 0.12094,-0.315165 -0.47813,-0.825735 -1.90537,-1.623895 -4.87712,-2.72744 -4.94489,-3.096164 -1.42753,-7.767115 6.01604,-7.989106 8.963,-12.9979586 9.6612,-16.4207872 0.28185,-1.3817679 0.62639,-2.17753285 1.07046,-2.47237983 l 0.65482,-0.43478901 1.81975,0.68085543 c 2.09588,0.78416841 8.35087,4.82650161 12.40227,8.01506301 1.528,1.2025706 3.59356,2.7080916 4.59015,3.3456016 l 1.81198,1.15911 -0.203,1.082082 -0.203,1.082082 2.01285,1.440032 c 1.10707,0.792018 2.29141,1.63601 2.63187,1.875538 l 0.61901,0.435506 -0.67082,1.09326 c -0.36895,0.601293 -1.54939,3.151625 -2.62319,5.667405 -2.34929,5.504042 -4.92607,10.725028 -5.99452,12.145856 -0.9722,1.292841 -1.2859,1.28884 -5.7095,-0.07283 z m -0.24027,-5.367172 c 0.97324,-1.043857 2.96698,-4.938827 5.19823,-10.155226 1.07178,-2.505692 2.37469,-5.399715 2.89536,-6.431163 1.14346,-2.265179 1.14812,-2.339099 0.17546,-2.782272 -0.42417,-0.193265 -2.58875,-1.733819 -4.81018,-3.4234524 -7.01772,-5.3377198 -13.14503,-9.0681227 -13.80715,-8.4060038 -0.0958,0.095855 -0.36993,1.109378 -0.60905,2.2522731 -0.70019,3.3465451 -3.18573,7.6160021 -8.8602,15.2193701 l -3.49757,4.686474 1.0479,0.881921 c 2.42384,2.039922 10.25204,5.473234 17.70747,7.766184 4.23868,1.303624 3.74893,1.261532 4.55973,0.391895 z"
         id="path2" />
    </g>
  </g>
</svg>
