<?xml version="1.0" encoding="UTF-8" standalone="no"?>
<!-- Created with Inkscape (http://www.inkscape.org/) -->

<svg
   version="1.1"
   id="svg1"
   width="477.84448"
   height="297.20853"
   viewBox="0 0 477.84448 297.20852"
   sodipodi:docname="jayna-blue.png"
   inkscape:export-filename="jayna-blue.svg"
   inkscape:export-xdpi="96"
   inkscape:export-ydpi="96"
   xmlns:inkscape="http://www.inkscape.org/namespaces/inkscape"
   xmlns:sodipodi="http://sodipodi.sourceforge.net/DTD/sodipodi-0.dtd"
   xmlns="http://www.w3.org/2000/svg"
   xmlns:svg="http://www.w3.org/2000/svg">
  <defs
     id="defs1" />
  <sodipodi:namedview
     id="namedview1"
     pagecolor="#505050"
     bordercolor="#eeeeee"
     borderopacity="1"
     inkscape:showpageshadow="0"
     inkscape:pageopacity="0"
     inkscape:pagecheckerboard="0"
     inkscape:deskcolor="#d1d1d1" />
  <g
     inkscape:groupmode="layer"
     inkscape:label="Image"
     id="g1"
     transform="translate(-0.43776181,-0.35574099)">
    <g
       id="g2"
       transform="translate(0.0422394,-0.03953137)">
      <path
         style="fill:#779be0"
         d="m 16.72,291.31015 c -1.663363,-0.17971 -1.670597,-0.30008 -0.134706,-2.2414 1.620537,-2.04831 3.268074,-3.14526 6.94834,-4.62628 5.382648,-2.16609 9.497404,-6.03594 8.466366,-7.96246 -0.440359,-0.82282 -0.493451,-0.81939 -5.259804,0.33995 -2.215863,0.53898 -4.494897,0.93498 -5.064519,0.88 l -1.035677,-0.0999 1.44,-1.56273 c 5.286564,-5.73716 11.765039,-8.59589 21.853527,-9.64321 17.846971,-1.85274 23.714014,-9.5786 22.299972,-29.3651 -0.345479,-4.83425 -0.428482,-5.47467 -2.223495,-17.15564 -1.386021,-9.01946 -3.21359,-22.3986 -5.140654,-37.63332 -0.690138,-5.456 -1.834071,-14.06607 -2.542073,-19.13349 C 55.619275,158.03911 55.04,153.49915 55.04,153.01773 c 0,-3.14523 -0.976898,-2.98958 -10.894456,1.73592 -17.260976,8.22447 -33.223288,14.18996 -40.0277301,14.9593 l -1.8021862,0.20376 -0.3969253,-0.47827 -0.3969253,-0.47826 1.0791115,-1.78094 c 2.6743554,-4.4137 12.0244474,-11.90533 19.3435024,-15.49871 4.71958,-2.31714 5.920521,-3.53541 4.754856,-4.82346 -0.776252,-0.85774 -2.149741,-0.7702 -3.745606,0.23874 -15.9067385,10.05658 -18.9462411,6.99337 -5.405549,-5.44771 5.834905,-5.36107 5.555232,-4.92523 4.023494,-6.27012 -1.568733,-1.37736 -1.539866,-1.40787 4.388668,-4.63809 6.966758,-3.79592 18.437273,-10.37523 26.519746,-15.21133 l 6.56,-3.92514 3.84,0.71184 c 11.676225,2.16447 14.097935,3.87069 13.751804,9.68884 -0.355102,5.96895 0.346914,6.53678 4.445641,3.59591 2.910219,-2.08812 5.645767,-1.10611 9.802555,3.51893 l 0.8,0.89011 -2.326884,-0.20739 c -6.034332,-0.53785 -9.219949,3.08062 -5.708451,6.4841 l 1.078007,1.04484 -1.075209,1.59776 c -1.681649,2.49892 -1.889732,3.61667 -1.867511,10.03165 l 0.01995,5.76 2.127712,12.8 c 2.98884,17.98042 4.650564,30.06697 6.159341,44.8 0.450595,4.4 1.023714,9.728 1.273599,11.84 2.561739,21.65158 1.524513,31.2693 -4.572642,42.4 -9.951913,18.16778 -24.545662,24.2317 -59.587914,24.75966 -5.016,0.0756 -9.732,0.0713 -10.48,-0.01 z m 115.04133,-28.6436 c -3.97421,-0.84873 -17.38406,-10.12665 -19.04724,-13.17829 l -0.54951,-1.00825 -0.056,-9.28 c -0.20508,-33.99568 1.19052,-51.79846 5.64421,-72 3.0227,-13.71067 3.6323,-18.50381 2.77918,-21.85179 l -0.26802,-1.05178 2.10654,0.21582 2.10653,0.21582 1.47219,-0.56223 c 0.8097,-0.30923 2.34054,-1.33705 3.40185,-2.28404 2.06075,-1.83877 2.05157,-1.83515 4.72892,-1.8633 l 1.76,-0.0185 0.0835,-0.8 c 0.0591,-0.56561 -1.08945,-2.61805 -3.92,-7.00515 C 129.8016,128.78203 128,125.80752 128,125.58483 c 0,-1.15946 8.09462,-7.56714 10.31443,-8.16487 l 1.24861,-0.33621 1.40654,0.68089 c 5.67458,2.74702 13.41906,19.07793 18.23289,38.44796 2.01437,8.10546 2.56117,10.92921 4.32741,22.34741 4.56874,29.53536 11.06334,50.56617 19.7255,63.8751 l 0.43939,0.67511 -2.98221,2.85101 c -4.22248,4.03672 -8.9993,6.43412 -11.09246,5.56711 -1.49217,-0.61808 -5.35823,-8.09505 -9.6472,-18.65768 -3.10809,-7.65445 -1.89004,-7.79759 -12.24327,1.43882 -3.69274,3.2944 -3.59204,3.27232 -5.5206,1.21053 -1.45863,-1.5594 -2.69304,-2.05016 -3.17899,-1.26388 -0.11426,0.18487 -0.1927,4.10887 -0.17431,8.72 0.0634,15.89722 -1.71707,20.83881 -7.0944,19.69042 z m 14.30031,-51.75736 c 6.82044,-6.40084 6.66678,-4.37444 2.12593,-28.03643 -0.53964,-2.81201 -1.37861,-7.34475 -1.86437,-10.07275 l -0.8832,-4.96 -0.71948,-0.10219 c -0.91206,-0.12954 -1.09704,0.3379 -2.5097,6.34219 -3.35473,14.25865 -5.1558,31.97566 -3.98028,39.15358 0.66033,4.03205 1.24189,3.85943 7.8311,-2.3244 z M 302.56,211.93231 c -7.28313,-0.99999 -7.76726,-1.27189 -8.17169,-4.58939 -0.66292,-5.43788 -1.66705,-7.42364 -4.3044,-8.51234 l -1.43065,-0.59057 -2.3e-4,-11.2 c -7.4e-4,-35.22573 -2.22524,-66.58455 -5.7429,-80.95786 -1.1197,-4.57513 -1.51449,-3.89326 4.25283,-7.345418 6.49857,-3.889858 11.10232,-6.013856 13.42386,-6.193263 l 1.86681,-0.144266 1.97997,2.040401 c 4.50305,4.640488 19.09393,24.627996 39.0407,53.480406 l 2.15698,3.12 h 0.7944 c 1.17842,0 1.22821,-0.49805 0.65001,-6.5018 -0.70542,-7.32489 -2.30724,-26.79617 -2.79524,-33.97821 -0.21526,-3.168 -0.40164,-11.087996 -0.41419,-17.599996 l -0.0228,-11.84 0.59135,-3.2 c 0.32524,-1.760001 1.15102,-5.756011 1.83506,-8.880023 0.68405,-3.124013 2.32592,-10.946896 3.64861,-17.384185 2.64865,-12.890473 2.48586,-12.359304 4.28661,-13.986177 4.33194,-3.913649 13.05815,-0.246331 17.31946,7.278757 1.43548,2.534937 3.01909,4.242038 4.16959,4.494729 1.30331,0.286255 1.33032,0.417203 0.61698,2.991361 -3.27528,11.819257 -5.51338,30.446876 -5.56117,46.285538 -0.031,10.287866 0.0541,11.554456 1.73184,25.760006 2.12024,17.95222 3.44747,41.85337 2.73986,49.34016 l -0.23253,2.46016 -0.8712,0.19135 c -0.47916,0.10524 -1.75465,0.24825 -2.83441,0.3178 -2.62958,0.16936 -2.94384,0.3877 -4.41133,3.06481 -1.57996,2.88229 -3.51,4.62712 -5.88428,5.31958 l -1.78789,0.52144 -1.76,-0.36429 c -7.7325,-1.6005 -30.15061,-23.61364 -40.86931,-40.13101 -1.45714,-2.24544 -2.41132,-2.73958 -3.27669,-1.69688 l -0.38436,0.46313 0.3418,5.37687 c 0.18799,2.95728 0.48793,8.18488 0.66655,11.61688 0.17861,3.432 0.61347,11.37749 0.96634,17.65665 0.35288,6.27916 0.64648,15.32887 0.65244,20.11046 l 0.0108,8.6938 -0.65383,1.35063 c -1.30753,2.701 -6.32236,3.98614 -12.33378,3.16076 z m 102.14214,-15.09936 c -1.86054,-4.00858 -3.50017,-8.71193 -4.71618,-13.52854 -2.04485,-8.09968 -2.36823,-10.59994 -2.86928,-22.1844 -0.44186,-10.21607 -0.85327,-16.03049 -1.51703,-21.44 -2.24983,-18.33592 1.03709,-46.504816 8.43542,-72.291467 2.84249,-9.907386 3.19847,-10.504742 7.57735,-12.715193 13.29035,-6.708948 21.31098,-0.249721 31.84626,25.646654 3.03409,7.457974 9.17332,26.106786 10.93649,33.221206 3.76434,15.18915 9.67059,32.47167 14.90698,43.6199 2.7799,5.91838 3.12378,7.1253 2.97236,10.43203 l -0.11451,2.50076 -1.04771,2.128 c -1.27324,2.58603 -3.70827,4.9225 -6.6284,6.36007 l -2.05943,1.01385 -1.15008,-0.21575 c -1.57758,-0.29596 -3.37685,-2.18268 -4.30812,-4.51751 -0.41737,-1.0464 -1.97434,-4.49455 -3.45993,-7.66255 -2.53175,-5.39893 -3.42821,-7.36911 -6.26097,-13.76 -0.62409,-1.408 -1.43207,-2.899 -1.7955,-3.31332 l -0.66079,-0.75332 -0.85733,0.21518 c -0.47153,0.11834 -6.15478,3.37512 -12.62943,7.23729 l -11.77211,7.02211 -0.19282,0.76827 c -0.10606,0.42255 0.0332,2.11276 0.30939,3.75603 2.60767,15.51343 -3.93813,31.62776 -12.84751,31.62776 h -0.62716 z m 14.81965,-43.31294 c 0.007,-3.83537 3.89754,-7.88325 14.00689,-14.57179 5.45756,-3.61082 5.35302,-3.45959 4.87733,-7.05633 -1.84833,-13.97537 -11.14585,-42.997 -14.42375,-45.022851 -2.37213,-1.46606 -6.72119,35.679351 -6.82525,58.294661 l -0.037,8.04369 0.6096,0.67631 c 0.95341,1.05775 1.79004,0.88797 1.79219,-0.36369 z M 98.72,111.54551 c -4.118316,-0.59768 -6.390365,-1.11091 -7.048566,-1.5922 l -0.57273,-0.41879 -0.150311,-4.94547 c -0.223156,-7.342216 1.425606,-18.578027 3.199412,-21.803021 l 0.740339,-1.346025 1.217024,-0.100575 c 1.598528,-0.132102 6.459322,1.31998 14.547192,4.345731 l 6.49236,2.428856 -0.21582,0.502994 c -2.12277,4.947377 -3.04525,9.797376 -3.12167,16.41243 -0.0322,2.78407 -0.19853,5.16965 -0.37266,5.3435 -1.25841,1.25639 -9.57206,1.91889 -14.71457,1.17257 z m 45.6,-3.77394 c -3.79168,-3.54184 -7.34305,-5.2223 -10.54672,-4.99057 l -1.84371,0.13336 -0.19791,-3.234615 c -0.3429,-5.604184 0.56879,-14.350471 1.72008,-16.501681 0.56958,-1.064271 2.67487,-0.788742 7.73122,1.011818 2.51737,0.896433 6.08889,2.133422 7.9367,2.748866 l 3.35966,1.118988 2.80836,-0.108866 2.80835,-0.108866 -0.20482,0.96 c -0.71572,3.354653 -10.35009,20.669106 -11.47804,20.627806 -0.18324,-0.007 -1.12517,-0.75202 -2.09317,-1.65624 z M 391.36,35.81665 c -5.5325,-0.416035 -11.82758,-1.427086 -12.39053,-1.99004 -1.95659,-1.95659 -1.31909,-12.77632 1.23443,-20.95075 l 1.0259,-3.2841401 0.66277,0.2103551 c 0.36452,0.1156952 4.56247,1.971811 9.32878,4.124702 4.76631,2.152891 8.98978,4.017104 9.38548,4.142695 0.5133,0.162916 0.65596,0.380528 0.49785,0.759438 -1.01615,2.435233 -1.17367,3.671717 -1.21819,9.562196 l -0.0465,6.151105 -0.64,0.624002 c -0.83595,0.815055 -3.12521,1.004981 -7.84,0.650437 z m 44.96,-3.079267 c -5.40012,-1.251968 -18.9183,-7.011723 -20.46325,-8.718872 l -0.57454,-0.634861 2.87342,-3.771825 c 5.736,-7.529431 9.15807,-13.4228455 9.56194,-16.4673329 0.13435,-1.0127662 0.35908,-1.544492 0.65278,-1.544492 1.37657,0 6.78412,3.3718329 13.06965,8.1494692 2.112,1.6053327 4.24729,3.1751487 4.7451,3.4884797 0.4978,0.313331 0.83019,0.738973 0.73864,0.945872 -0.0915,0.206899 -1.30423,2.96818 -2.69485,6.13618 -4.17061,9.501164 -5.93358,12.709759 -6.92467,12.60288 C 437.1149,32.902465 436.672,32.81899 436.32,32.737383 Z"
         id="path4" />
      <path
         style="fill:#4f77c8"
         d="m 202.27216,266.36821 c -2.6465,-3.36447 8.9851,-21.45627 19.56784,-30.43582 l 2.8,-2.37582 v -1.27988 c 0,-3.67852 -5.69131,-39.3445 -8.1632,-51.15668 -6.14339,-29.35687 -18.13062,-58.70448 -33.61763,-82.304018 -12.32471,-18.780732 -36.73541,-50.583297 -50.5491,-65.855991 -3.30408,-3.653058 -4.38823,-6.045615 -3.19007,-7.04 0.70388,-0.584172 0.5858,-1.972257 -0.266,-3.126802 -3.35922,-4.553175 -1.75164,-7.7219 5.07062,-9.994737 3.40598,-1.134704 3.51799,-1.22827 3.98956,-3.332488 0.72538,-3.2367866 3.64886,-5.0101978 6.0983,-3.6992936 2.47436,1.3242378 39.62953,49.4594436 50.89883,65.9403856 5.66039,8.278104 9.30722,11.787741 16.68654,16.058779 8.22523,4.760644 14.61336,4.955123 28.38419,0.864123 3.76813,-1.119426 3.57175,-1.096302 3.31171,-0.389964 -2.8173,7.652482 -12.20352,12.193206 -24.53361,11.868496 L 214.64027,100 l -0.33036,0.51541 -0.33037,0.5154 2.88948,5.2446 c 3.79247,6.88359 5.20777,9.70179 7.77635,15.4846 l 2.13205,4.8 0.64992,0.0968 0.64992,0.0968 1.68223,-5.05314 c 7.44004,-22.348644 28.42138,-54.870267 49.37736,-76.536218 l 2.27848,-2.35568 0.49234,0.317934 c 0.35524,0.229404 0.48203,0.817921 0.45535,2.113525 l -0.037,1.795591 -1.50514,2.962155 c -0.82783,1.629185 -2.71919,4.778282 -4.20302,6.997993 -2.77593,4.152573 -3.03429,4.83708 -2.22807,5.903001 1.01932,1.347663 -0.29082,5.553909 -2.83137,9.090161 -1.23767,1.72275 -1.36265,2.231529 -0.80439,3.274641 l 0.35406,0.661565 -1.45613,2.917398 c -0.80087,1.604569 -2.83906,5.149398 -4.52932,7.877398 -13.10372,21.148826 -24.48994,54.684546 -24.55444,72.320006 l -0.0181,4.96 1.46915,9.92 c 0.80804,5.456 1.83969,13.304 2.29256,17.44 0.45287,4.136 1.17622,10.472 1.60744,14.08 0.43123,3.608 0.9371,8.20762 1.12417,10.22138 0.47698,5.13477 0.90141,5.42049 4.75318,3.19978 1.23905,-0.71437 3.07026,-1.58616 4.06936,-1.93731 l 1.81654,-0.63846 1.53462,0.55184 1.53461,0.55184 1.86414,-0.82145 c 2.64987,-1.16768 3.02537,-1.25038 5.72538,-1.26097 l 2.41894,-0.009 0.61991,0.56101 c 0.83503,0.75569 0.78014,1.73641 -0.17607,3.14546 -1.20808,1.7802 -1.28823,2.5105 -0.39354,3.58569 0.42594,0.51187 0.95007,1.26433 1.16472,1.67213 l 0.39029,0.74146 -0.45787,0.69854 c -0.25182,0.3842 -2.09806,1.63026 -4.10274,2.76903 -3.36738,1.91285 -14.19951,8.48532 -41.56488,25.21977 -21.25125,12.99555 -22.99322,13.91698 -23.96784,12.67794 z"
         id="path3" />
      <path
         style="fill:#010101"
         d="m 21.52,297.3859 c -2.405158,-0.16406 -2.448529,-0.33534 -0.702388,-2.77379 l 1.297611,-1.8121 -2.497611,-0.003 c -5.734647,-0.006 -6.63433,-0.40968 -5.567508,-2.49573 1.563552,-3.05734 4.320236,-5.31412 8.634955,-7.06907 l 2.83333,-1.15242 2.520805,-2.37322 c 1.840837,-1.73307 2.305012,-2.31717 1.720806,-2.16541 -0.44,0.11429 -2.504621,0.59991 -4.588046,1.07914 l -3.788047,0.87133 -0.851953,-0.47601 c -0.531637,-0.29704 -0.889915,-0.80195 -0.952919,-1.34291 l -0.100964,-0.86689 1.700965,-1.80674 c 5.467863,-5.80789 12.254938,-8.89121 21.760175,-9.88548 21.402626,-2.23878 25.080925,-10.27043 19.928255,-43.51381 -1.397771,-9.01798 -3.474656,-24.17786 -5.260749,-38.4 -1.069924,-8.51949 -3.234115,-24.27279 -3.352668,-24.40431 -0.0418,-0.0464 -2.366056,1.01281 -5.165021,2.35373 -19.318167,9.25488 -38.397556,15.85803 -41.9348457,14.51316 -1.2160958,-0.46236 -0.8258865,-2.68927 0.8044062,-4.59072 L 8.48,170.46374 7.2,170.68112 c -0.704,0.11956 -2.2327302,0.30449 -3.3971782,0.41096 l -2.1171781,0.19357 -0.6828219,-0.68282 C -1.2308107,168.3692 2.7551807,163.14032 12,156.17658 c 4.531315,-3.41325 4.960183,-4.08351 1.747678,-2.73139 -1.052171,0.44286 -2.751264,0.8928 -3.7757631,0.99988 l -1.8627248,0.1947 -0.712683,-0.90603 c -1.6075319,-2.04365 1.3921552,-6.10083 10.7872299,-14.59011 l 2.663736,-2.40692 -0.983736,-0.98374 c -2.038546,-2.03854 -1.715792,-2.34964 7.976263,-7.6881 7.528433,-4.14673 19.519038,-11.06711 26.707488,-15.41424 4.399776,-2.66071 4.161856,-2.6252 9.818141,-1.46541 9.002437,1.8459 13.422496,4.1568 13.921685,7.27855 l 0.199484,1.24751 1.193872,0.60907 c 0.656629,0.33498 1.635893,0.981 2.176142,1.43559 0.687999,0.57891 1.204854,0.77066 1.725244,0.64005 1.47858,-0.3711 9.200016,5.9088 9.236345,7.51199 0.01389,0.61275 0.53053,1.20468 2.105261,2.41203 2.207829,1.69274 2.835155,2.48456 2.552333,3.22159 l -0.173287,0.45157 -3.131354,-0.0754 -3.131354,-0.0754 -1.053873,0.57423 c -2.078773,1.13269 -2.132576,2.87111 -0.156551,5.05833 0.821442,0.90924 1.082924,1.42056 0.871878,1.70493 -1.520275,2.04847 -2.112532,3.19625 -2.569801,4.9802 l -0.533154,2.08 0.169312,5.12 0.169311,5.12 1.618115,9.44 c 2.649584,15.45754 5.052343,32.69581 6.445171,46.24 0.361982,3.52 0.941178,8.92 1.287102,12 0.790328,7.03683 1.254391,13.35092 1.493829,20.32519 l 0.186942,5.4452 -0.543279,2.7148 C 94.792556,274.79683 83.854834,287.96083 68.16,293.0704 c -9.431548,3.07051 -32.966824,5.24818 -46.64,4.3155 z m 17.2,-6.21859 c 27.455134,-1.80557 40.624546,-8.87434 49.123408,-26.3673 5.84487,-12.03033 6.243656,-17.3462 3.336798,-44.48 -2.665454,-24.88044 -3.981662,-34.76253 -7.075112,-53.12 l -1.941256,-11.52 -0.159835,-5.78768 -0.159836,-5.78768 0.549738,-1.89232 c 0.302357,-1.04078 0.964387,-2.50705 1.471179,-3.25838 l 0.92144,-1.36606 -1.113262,-1.45845 c -1.917224,-2.5117 -1.426744,-4.71015 1.28161,-5.74448 l 1.435944,-0.5484 2.564592,0.22372 2.564592,0.22371 v -0.49495 c 0,-0.52595 -2.967249,-3.10118 -5.902945,-5.12307 l -1.76987,-1.21895 -2.238261,1.55649 c -1.231043,0.85607 -2.58692,1.76553 -3.013059,2.02102 l -0.774798,0.46452 -0.556138,-0.46155 -0.556138,-0.46156 0.20848,-4.36729 0.20848,-4.3673 -1.131773,-0.99371 c -2.169609,-1.90494 -5.743184,-3.21835 -12.756951,-4.6886 l -4.050771,-0.84914 -8.073128,4.78797 c -9.811458,5.81894 -17.486624,10.2127 -24.713128,14.1474 -2.992,1.62908 -5.650031,3.15977 -5.906736,3.40152 l -0.466735,0.43954 1.223143,1.25262 c 1.464533,1.49981 1.505952,1.35954 -1.089672,3.69036 -16.7729163,15.06174 -15.7123718,18.97387 2.328074,8.58778 2.78032,-1.60066 3.905608,-1.66116 4.264979,-0.22932 0.293587,1.16974 -0.422539,1.7975 -4.331417,3.79694 -10.328909,5.28337 -21.8139009,15.37793 -20.7248935,18.21584 1.0442032,2.72115 21.3878605,-4.27379 43.9351445,-15.10661 8.604587,-4.13406 8.823,-4.14268 9.227223,-0.36393 0.122377,1.144 0.722787,5.608 1.334245,9.92 0.611457,4.312 1.679768,12.34205 2.374023,17.84456 1.904227,15.09248 4.045126,30.7543 5.301567,38.78379 2.262412,14.45831 2.701269,19.90239 2.077497,25.77165 -1.42295,13.38897 -6.818256,18.34798 -21.597624,19.85111 -9.844573,1.00124 -15.80215,3.46963 -21.476556,8.89832 -3.473604,3.32319 -2.907557,3.67579 3.420333,2.13057 5.481762,-1.33859 6.448508,-1.18269 5.353492,0.86337 -1.457463,2.72329 -3.86138,4.52784 -8.411197,6.31402 -3.801794,1.49252 -8.19489,5.16115 -8.19489,6.84346 0,0.67466 13.592564,0.68984 23.68,0.0265 z M 207.78092,272.9548 c -1.14649,-0.45704 -1.48315,-1.48263 -1.28043,-3.90065 l 0.1838,-2.19229 -0.91522,0.65169 c -3.69419,2.6305 -6.43404,-0.39948 -4.93309,-5.45546 1.95653,-6.59058 13.20146,-21.58065 21.04083,-28.04852 l 1.55682,-1.28445 -0.6951,-5.24255 c -2.47305,-18.65218 -6.80903,-43.30759 -9.59164,-54.5404 -6.58999,-26.60229 -17.55905,-52.13679 -31.56804,-73.486178 -12.24164,-18.655972 -37.46754,-51.520203 -50.54968,-65.85599 -3.47454,-3.807497 -4.58856,-6.77369 -3.14366,-8.37029 l 0.52551,-0.580683 -0.79468,-1.204514 c -0.43707,-0.662483 -1.10458,-2.140514 -1.48336,-3.284514 l -0.68869,-2.08 0.32965,-1.188241 c 0.56036,-2.019838 3.70217,-4.15035 8.36353,-5.671446 l 2.13747,-0.697499 0.34709,-1.6184091 c 0.85931,-4.0068288 5.40099,-6.3331449 8.24849,-4.2249966 3.72012,2.7542019 42.44983,52.2471917 53.68948,68.6102097 7.22283,10.515203 15.73334,16.334255 24.65864,16.860322 l 2.89864,0.170849 5.04301,-1.012588 c 2.77365,-0.556924 6.68764,-1.5111 8.69775,-2.120393 3.93112,-1.191574 4.62674,-1.295021 5.15514,-0.766625 0.24158,0.241574 0.60303,-0.108762 1.23807,-1.2 5.23592,-8.997169 22.11885,-30.714257 32.21548,-41.439867 2.44844,-2.600962 3.02815,-2.81771 4.41503,-1.65073 l 1.03463,0.870584 -0.14532,2.264402 -0.14532,2.264403 -1.35086,2.715013 -1.35085,2.715013 2.78479,-2.8 c 2.99599,-3.012358 3.29334,-3.157828 4.33192,-2.11925 l 0.68075,0.680749 -0.17596,1.940527 c -0.21982,2.424216 -2.12445,6.382947 -5.42055,11.266521 -1.27875,1.894611 -2.54099,3.785432 -2.80499,4.201826 l -0.48,0.757079 0.56,0.982207 c 1.10365,1.935728 0.0707,5.669013 -2.63628,9.528073 l -1.30604,1.861895 0.33168,0.872395 c 0.60911,1.602071 0.0562,2.778101 -6.1818,13.14798 -13.62434,22.648806 -25.33684,58.562366 -24.05539,73.760006 0.1113,1.32 0.83741,6.864 1.61356,12.32 0.77616,5.456 1.78151,13.304 2.23412,17.44 1.12775,10.30561 2.06469,18.25955 2.25076,19.10737 l 0.15525,0.70738 1.49706,-0.64172 c 2.10749,-0.90338 3.88339,-1.08756 5.21897,-0.54128 l 1.11811,0.45733 1.63386,-0.74688 c 2.17147,-0.99262 4.98232,-1.48822 7.28018,-1.2836 l 1.87404,0.16688 0.95507,0.90726 0.95508,0.90726 -0.15037,1.44 c -0.0827,0.792 -0.25521,1.692 -0.38335,2 l -0.23298,0.56 h 1.65013 c 3.7433,0 4.74669,1.73418 2.89834,5.00928 -1.16071,2.05666 -1.15876,1.78207 -0.0218,3.07699 0.51601,0.5877 1.03268,1.445 1.14816,1.90511 l 0.20997,0.83657 -1.06816,1.12189 c -0.58749,0.61704 -2.97389,2.21343 -5.30313,3.54754 -4.37309,2.50477 -12.7,7.55686 -37.20503,22.57298 -21.8888,13.41295 -25.77692,15.5715 -27.09908,15.04443 z m 1.26943,-8.74994 c 4.80411,-2.76532 11.56612,-6.8663 40.54965,-24.59236 5.896,-3.60594 13.24,-8.02624 16.32,-9.82288 7.05682,-4.11644 7.37589,-4.51207 5.45301,-6.7617 -1.15495,-1.35119 -1.18461,-2.01193 -0.16466,-3.66791 2.54407,-4.13054 -3.98799,-6.16756 -9.08414,-2.83289 -0.52064,0.34068 -1.11803,0.43057 -1.92,0.2889 -0.64032,-0.11311 -1.7514,-0.28351 -2.46907,-0.37867 l -1.30486,-0.17301 -3.92367,2.02751 -3.92368,2.02751 -0.61146,-0.75512 c -0.35317,-0.43615 -0.61147,-1.25015 -0.61147,-1.92697 0,-0.64451 -0.36458,-4.33656 -0.81018,-8.20455 -0.4456,-3.86799 -1.31219,-11.47054 -1.92574,-16.89455 -0.61356,-5.42401 -1.71881,-13.84801 -2.45611,-18.72 l -1.34054,-8.85816 -7.5e-4,-5.92 -7.4e-4,-5.92 0.73582,-4.16 c 3.37344,-19.07186 13.48253,-45.62585 23.57291,-61.920006 5.10317,-8.240696 6.3589,-11.034567 5.59835,-12.45568 l -0.30699,-0.573604 1.54189,-2.365359 c 2.8956,-4.442034 3.60469,-6.910781 2.56042,-8.914268 l -0.67167,-1.288618 2.89655,-4.304839 c 3.27141,-4.861938 5.66592,-9.556763 5.9724,-11.709863 l 0.20672,-1.452229 -0.66355,-0.787771 -0.66356,-0.787771 -2.48765,2.56 c -20.94761,21.556807 -41.84256,53.89348 -49.52237,76.640008 -1.68244,4.98313 -2.38033,6.04926 -2.89219,4.41819 -0.68506,-2.18298 -5.63447,-12.45674 -8.73972,-18.14152 -4.65804,-8.527471 -4.81897,-7.917069 2.0461,-7.7609 11.26941,0.25637 18.12072,-2.849816 22.6306,-10.260056 1.61217,-2.648974 1.56965,-2.894689 -0.37317,-2.156476 -20.24311,7.691777 -34.18902,2.88202 -47.37571,-16.339245 -9.58498,-13.971313 -24.31644,-33.39825 -40.64491,-53.600002 -3.98316,-4.928 -7.73803,-9.5868821 -8.34416,-10.3530707 -2.8358,-3.584649 -7.48033,-2.4972384 -8.18613,1.9165959 -0.2908,1.8186018 -0.90183,2.3442738 -3.83125,3.2960498 -3.7432,1.216176 -7.16467,3.658775 -7.16467,5.114881 0,0.864129 1.33837,4.235374 2.14153,5.39433 l 0.84417,1.218136 -0.53285,1.117396 c -1.09108,2.288024 -0.58593,3.600134 2.84758,7.396421 25.25582,27.924332 53.3631,67.54442 64.94171,91.54199 12.66608,26.25143 18.58895,47.48987 25.09799,89.99728 3.02837,19.7768 3.05416,18.41438 -0.40614,21.45129 -8.74688,7.67661 -19.54654,22.99393 -19.991,28.35352 l -0.14391,1.73538 0.57005,0.6299 c 0.90052,0.99506 1.44466,0.81017 6.96122,-2.36524 z m 20.84999,-147.16924 c 0.81346,-2.24642 2.25344,-5.77442 3.19996,-7.84 1.98648,-4.33511 1.98792,-4.04917 -0.0178,-3.54326 -0.92313,0.23285 -3.85387,0.40205 -7.16246,0.41351 -4.27604,0.0148 -5.58114,0.11317 -5.52024,0.41603 0.0439,0.21816 1.16697,2.35862 2.49579,4.7566 1.32882,2.39797 3.07141,5.64782 3.87242,7.22188 0.80101,1.57407 1.5007,2.81642 1.55487,2.76078 0.0542,-0.0556 0.76403,-1.93913 1.5775,-4.18554 z m -96.67137,150.16996 c -4.0199,-2.03542 -8.13386,-5.004 -15.78897,-11.39311 -4.66268,-3.89158 -5.55065,-4.78124 -6.17034,-6.18216 l -0.64407,-1.45603 0.0545,-11.52713 c 0.17318,-36.59309 1.29528,-49.93373 5.96239,-70.88714 2.58701,-11.61462 2.8597,-13.54244 2.61065,-18.45635 l -0.19911,-3.92866 0.65962,-0.35302 c 0.48262,-0.25829 1.06689,-0.25532 2.17742,0.0111 2.3779,0.57044 4.06669,-0.007 6.6221,-2.26239 2.02448,-1.78718 2.59399,-2.04891 4.97456,-2.28619 l 0.84777,-0.0845 -3.35518,-5.12 c -5.3927,-8.22927 -5.32576,-7.72185 -1.4968,-11.34627 8.01297,-7.58495 11.6848,-7.82051 16.76795,-1.07573 0.7718,1.0241 2.1376,2.654 3.0351,3.622 8.40352,9.06363 15.76189,30.15696 19.98467,57.28759 4.72093,30.33119 10.26813,49.15057 18.72132,63.51377 2.18028,3.70462 2.2722,3.10581 -0.95187,6.20105 -7.02025,6.73972 -11.79054,7.98524 -14.5298,3.79371 L 171.10181,253.12 h -0.76682 c -2.44454,0 -4.64428,-3.32387 -9.21228,-13.92 -0.83461,-1.936 -1.60866,-3.61892 -1.72012,-3.73983 -0.11145,-0.1209 -2.21864,1.56631 -4.68264,3.74936 -5.29272,4.68923 -5.45253,4.73871 -7.665,2.3734 -2.15788,-2.30694 -2.10675,-2.49905 -2.21971,8.34091 l -0.10167,9.75616 -0.52567,2.23442 c -1.19116,5.06322 -2.78153,6.88225 -6.01898,6.88439 l -1.81103,10e-4 z m 2.07258,-4.81517 c 1.29627,-0.79031 2.34957,-2.98306 3.1465,-6.5504 l 0.5719,-2.56 0.0235,-9.44 0.0235,-9.44 0.74839,-0.10774 c 0.5515,-0.0794 1.19199,0.33034 2.43445,1.55737 2.0511,2.02562 1.23506,2.3774 7.81651,-3.36963 7.26802,-6.34655 7.12184,-6.29404 8.32556,-2.99081 2.49019,6.8336 8.68452,19.91122 10.16983,21.47081 l 0.83809,0.88 1.30013,-0.008 c 2.8065,-0.0164 6.43198,-2.11524 10.58013,-6.12498 l 2.56,-2.47458 -0.88897,-1.53642 c -9.29382,-16.06259 -14.62309,-33.67808 -19.29451,-63.77643 -4.34443,-27.99154 -11.77425,-49.62631 -19.92674,-58.02428 -4.12738,-4.25167 -6.3431,-3.69346 -14.19521,3.57621 -2.32181,2.14958 -2.5164,1.42114 2.41759,9.05023 2.22631,3.44239 4.04784,6.42008 4.04784,6.6171 0,0.65836 -1.14048,1.01608 -2.23692,0.70162 -1.38139,-0.39618 -2.5535,0.12606 -4.86745,2.1687 -2.23432,1.97236 -3.47443,2.40819 -6.43898,2.26294 l -2.29665,-0.11252 0.10019,0.64 c 0.76087,4.86048 0.29042,8.90164 -2.47731,21.28 -4.63495,20.72932 -5.30492,27.96141 -5.75105,62.08 -0.30603,23.40428 -0.7389,21.1878 5.01287,25.66759 10.56616,8.22949 15.22194,10.41314 18.25685,8.56281 z m 3.66583,-47.2561 -0.56738,-0.86569 -0.1142,-6.38135 c -0.16149,-9.02388 0.60617,-16.26713 3.0234,-28.52726 1.67167,-8.47864 2.51634,-11.36 3.33019,-11.36 0.67472,0 0.57811,-0.36823 1.93105,7.36 0.5392,3.08 1.39823,7.76 1.90897,10.4 3.93027,20.3156 4.05395,18.76742 -1.95659,24.49204 -6.4872,6.17861 -6.64078,6.27785 -7.55544,4.88226 z m 8.41199,-7.3743 c 2.23131,-2.07757 3.00902,-3.00641 3.01422,-3.6 0.0104,-1.18941 -2.92276,-18.03765 -3.19284,-18.33973 -0.64503,-0.72147 -3.19647,17.53897 -3.19966,22.89973 -0.001,2.3073 -0.18767,2.36025 3.37828,-0.96 z m 158.80779,10.00804 c -6.18808,-1.01296 -6.97376,-1.39655 -6.98226,-3.40886 -0.006,-1.44298 -0.30993,-1.68153 -2.79249,-2.19237 -2.68415,-0.55233 -2.92589,-0.90036 -3.46192,-4.98414 -0.56681,-4.31821 -1.38584,-6.10255 -3.19049,-6.95084 -0.704,-0.33092 -1.496,-0.71395 -1.76,-0.85117 l -0.48,-0.24949 -0.19819,-14.84559 c -0.53905,-40.37837 -2.3347,-64.23535 -5.90273,-78.42358 -1.20511,-4.79209 -1.34511,-4.5523 4.82092,-8.257249 14.17685,-8.518369 15.57004,-8.54847 22.43595,-0.484757 8.27901,9.723346 15.58127,19.581526 32.59219,44.000006 5.08156,7.29437 4.77366,6.97879 4.52713,4.64 -0.31806,-3.01739 -2.36508,-27.57087 -2.80123,-33.6 -0.55075,-7.61342 -0.55913,-30.232861 -0.0125,-33.760006 0.23184,-1.496001 1.1238,-5.960001 1.98214,-9.920001 0.85833,-3.96 2.51211,-11.88 3.67506,-17.600001 2.33777,-11.49839 2.56854,-12.232249 4.42439,-14.069725 4.52276,-4.477992 13.40007,-1.742886 18.61023,5.733826 0.43535,0.624744 1.65895,2.059033 2.7191,3.187308 1.06015,1.128275 1.92754,2.172275 1.92754,2.32 0,0.147725 0.19368,0.268591 0.4304,0.268591 0.67114,0 1.4896,1.086367 1.4896,1.977185 0,1.341014 1.7133,3.375195 3.22399,3.827809 1.75234,0.525014 1.75605,0.552881 0.65843,4.94862 -5.46795,21.898005 -6.71392,43.661644 -3.88193,67.806394 2.18865,18.65976 2.97537,30.1704 3.01196,44.06806 l 0.0275,10.46806 -0.54198,0.54249 c -0.37895,0.37931 -1.34709,0.60644 -3.21855,0.75508 -3.24633,0.25784 -3.1719,0.21472 -4.42329,2.56256 -1.40683,2.63949 -2.81976,4.18733 -4.82136,5.28174 l -1.71482,0.93761 -2.24,-0.009 c -3.7764,-0.0148 -7.66178,-2.05843 -13.56834,-7.13683 -1.55446,-1.33652 -3.8296,-3.25687 -5.05586,-4.26745 -5.23656,-4.31555 -17.36185,-17.24684 -23.55669,-25.12258 -2.83758,-3.60753 -3.18574,-3.85374 -2.9413,-2.08 0.091,0.66 0.46042,6.96 0.82105,14 0.36062,7.04 0.79776,14.744 0.97141,17.12 0.17366,2.376 0.40184,9.79812 0.50707,16.49361 l 0.19134,12.17361 -0.64631,1.4611 c -1.56355,3.53467 -7.14417,4.90199 -14.85521,3.63972 z m 5.419,-6.09576 c 4.38629,-1.30259 5.22694,-8.75579 3.6084,-31.99228 -0.18389,-2.64 -0.62247,-10.2 -0.97462,-16.8 -0.35216,-6.6 -0.73358,-13.54349 -0.84761,-15.42998 -0.31514,-5.21357 0.53734,-5.78944 3.05255,-2.06207 7.52825,11.15638 24.21818,29.48739 32.60924,35.81562 8.61769,6.49914 14.45282,5.84873 18.48953,-2.06093 0.985,-1.93003 1.08723,-1.98325 4.22429,-2.19914 1.89868,-0.13067 2.80414,-0.33852 3.2,-0.73458 l 0.55206,-0.55234 -0.0477,-9.98829 c -0.0651,-13.62484 -0.97321,-26.5498 -3.1187,-44.38829 -2.72555,-22.661456 -1.28414,-47.612253 3.91749,-67.811622 l 0.9285,-3.60561 -1.31978,-0.57282 c -1.59893,-0.693979 -2.15243,-1.294638 -4.46883,-4.849572 -3.44778,-5.29124 -7.66241,-8.238619 -12.19702,-8.529632 l -2.29741,-0.14744 -1.09826,0.554876 c -3.23798,1.635932 -3.41964,2.075273 -5.90683,14.28571 -1.16022,5.695857 -2.82923,13.66228 -3.70891,17.703164 -0.87969,4.040883 -1.83104,8.792883 -2.11412,10.56 l -0.51469,3.21294 0.0493,11.146479 c 0.058,13.111007 1.5343,35.939327 3.52712,54.538997 l 0.25536,2.38334 -0.44559,0.4456 c -0.91383,0.91382 -0.5657,1.29176 -5.77963,-6.27441 C 320.77788,114.71323 306.13838,94.961943 303.04,92.862041 l -1.12,-0.759072 -1.56426,0.145797 c -2.64148,0.246199 -17.79311,8.298134 -18.35109,9.752214 -0.10161,0.26479 0.26306,2.37089 0.81038,4.68023 3.36281,14.18884 5.09311,37.98643 5.72114,78.68539 l 0.20133,13.04659 1.34596,0.59538 c 2.48368,1.09865 3.41205,2.95141 4.02882,8.04039 0.44589,3.67901 0.29821,3.51386 3.84253,4.29712 5.32101,1.17589 10.38287,1.29685 13.65135,0.32621 z m 99.13862,-6.31228 c -0.25848,-0.396 -0.84395,-1.53837 -1.30103,-2.53859 l -0.83106,-1.8186 -0.97129,0.3386 c -2.12483,0.74072 -3.93741,-1.99361 -6.82484,-10.29548 -3.22673,-9.2774 -4.43761,-16.11141 -4.96667,-28.03091 -0.47394,-10.67757 -0.87883,-16.5546 -1.65175,-23.97502 l -0.66664,-6.4 0.17983,-9.12 c 0.4841,-24.551097 8.20504,-62.640591 13.72987,-67.73321 8.03115,-7.402856 19.44269,-6.234154 26.18275,2.681481 0.76993,1.018447 2.22142,2.746203 3.22554,3.839458 7.23486,7.877122 17.8402,33.292937 23.7459,56.907311 4.01425,16.05124 9.46132,31.59306 16.0887,45.90496 l 1.55591,3.36 v 3.68 3.68 l -0.90693,1.7599 c -4.0867,7.9303 -11.94809,10.20152 -15.0936,4.36067 -0.44722,-0.83045 -0.87623,-1.16378 -1.69569,-1.31751 -0.71361,-0.13387 -1.61541,-0.72954 -2.58038,-1.70443 l -1.4834,-1.49863 -1.80304,-4.16 c -1.5881,-3.66407 -7.28792,-16.17998 -7.47081,-16.40474 -0.21743,-0.26719 -21.59659,12.83051 -21.75435,13.32755 -0.10287,0.32414 0.0527,2.0131 0.34569,3.75326 1.45103,8.61773 0.34825,17.84371 -2.79976,23.42299 -3.01051,5.33557 -10.70731,10.34887 -12.25295,7.98094 z m -1.43589,-6.05492 c 9.08196,-4.49387 13.04025,-16.36385 10.50959,-31.51575 -0.21042,-1.25987 -0.29227,-2.65049 -0.1819,-3.09027 l 0.20069,-0.79959 10.16136,-6.06636 c 13.10516,-7.82382 13.67956,-8.14032 14.54945,-8.01693 0.9225,0.13085 0.70051,-0.31914 10.39148,21.06382 4.50155,9.9326 6.60767,10.90148 12.79151,5.88447 5.90681,-4.79225 6.33011,-9.72213 1.70047,-19.80447 -5.4402,-11.84756 -10.79982,-27.48169 -14.59023,-42.56 -7.71166,-30.677161 -19.94977,-56.688635 -28.66355,-60.922902 -7.32006,-3.557021 -18.35922,0.401781 -20.41997,7.322895 -0.34062,1.144 -1.13025,3.789527 -1.75472,5.878948 -7.68668,25.718696 -10.69239,51.936509 -8.47919,73.961059 0.57204,5.69265 0.75503,8.54973 1.60067,24.99126 0.56099,10.90725 2.51937,19.71698 6.53115,29.38022 2.48348,5.982 2.38783,5.90935 5.65319,4.2936 z m 8.59855,-45.62203 -0.70382,-0.88305 0.17732,-8.96 c 0.36158,-18.27057 3.93023,-53.705855 5.69318,-56.531061 0.9788,-1.568576 4.05528,4.773218 8.56272,17.651051 2.72849,7.79534 6.95481,26.29758 6.70331,29.34613 l -0.10015,1.21388 -5.1636,3.52 c -10.03189,6.83868 -13.15244,9.95449 -13.69333,13.67254 -0.27468,1.88811 -0.58278,2.09074 -1.47563,0.97051 z m 8.42371,-11.39514 c 1.01813,-0.81719 3.82613,-2.79385 6.24,-4.39258 2.41387,-1.59873 4.48749,-3.08169 4.60804,-3.29546 0.97699,-1.73244 -7.26907,-34.07643 -9.17321,-35.980566 -0.83037,-0.830367 -3.7548,26.219226 -4.52572,41.860696 l -0.21292,4.32 0.60633,-0.51315 c 0.33348,-0.28223 1.43935,-1.18176 2.45748,-1.99894 z M 103.90731,117.58714 c -6.780581,-0.92405 -7.776788,-1.36925 -8.159454,-3.64644 l -0.238503,-1.41931 -2.172092,-0.52954 c -3.525631,-0.85951 -3.721105,-1.34622 -3.723764,-9.27185 -0.0043,-12.851675 2.825284,-23.039996 6.398886,-23.039996 1.925037,0 17.960997,5.341742 21.427617,7.137756 l 0.8,0.414471 -0.0586,1.103886 c -0.0322,0.607138 -0.10422,1.443298 -0.16,1.858133 l -0.10143,0.754247 2.31171,0.853458 c 3.28235,1.211815 3.22237,1.061266 1.90213,4.773789 -1.69986,4.780026 -2.19872,7.788716 -2.29213,13.824256 -0.0985,6.36241 0.0273,5.6458 -1.09295,6.22513 -2.55773,1.32265 -9.08871,1.74598 -14.84145,0.96201 z m 7.24179,-6.18942 c 2.90813,-0.80759 2.74548,-0.42633 2.88808,-6.76949 0.13448,-5.981474 0.61527,-9.064416 2.01928,-12.948226 1.01186,-2.799017 1.24672,-4 0.78222,-4 -0.19468,0 -2.76702,-0.925925 -5.71632,-2.05761 -11.791685,-4.52463 -15.675006,-5.316886 -16.926417,-3.453244 -2.362339,3.518069 -4.632736,23.65505 -3.079219,27.3107 l 0.356904,0.83985 2.221955,0.54452 c 6.019551,1.47517 13.264997,1.69664 17.453517,0.5335 z m 37.6509,2.00913 c -1.496,-1.31607 -3.6539,-2.85501 -4.79534,-3.41985 l -2.07533,-1.027 -2.56467,0.007 c -2.99196,0.008 -3.03334,-0.0282 -3.03976,-2.64051 l -0.005,-1.9939 -0.72,-0.17465 c -0.396,-0.0961 -1.65045,-0.1348 -2.78767,-0.0861 l -2.06768,0.0885 -0.23388,-1.28 c -0.99401,-5.440014 0.37442,-18.855306 2.13153,-20.896275 l 0.74359,-0.863721 1.86706,0.03107 1.86705,0.03107 7.36,2.67615 7.36,2.67615 3.36141,0.02532 c 4.55569,0.03432 4.87791,0.417711 3.55914,4.234853 l -0.57856,1.674621 0.58375,0.185274 c 0.32106,0.101901 1.59158,0.08596 2.82339,-0.03542 l 2.23965,-0.22069 0.19329,0.5037 c 0.65906,1.71749 -6.16907,15.227298 -10.74207,21.253718 -1.49085,1.96468 -1.37295,1.98438 -4.48,-0.74898 z m -1.14466,-5.16477 c 4.37952,-6.03488 11.61697,-20.038603 10.48741,-20.292058 -0.12251,-0.02749 -1.51875,-0.07785 -3.10275,-0.111916 l -2.88,-0.06193 -3.36,-1.138207 c -1.848,-0.626013 -5.41967,-1.871651 -7.93704,-2.768084 -8.36573,-2.979029 -8.92594,-2.259718 -9.25088,11.878174 l -0.16705,7.268051 2.35748,-0.0226 c 3.70299,-0.0356 7.5023,1.85205 10.98243,5.45643 1.57202,1.62814 1.53616,1.63074 2.8704,-0.20782 z M 391.84,41.412771 c -8.23711,-1.111459 -8.59412,-1.261396 -8.96988,-3.767143 l -0.21602,-1.440506 -1.32705,-0.204928 c -3.75005,-0.579097 -4.18219,-1.11218 -4.71502,-5.816466 -0.88186,-7.785845 2.18466,-21.8637276 4.76248,-21.8637276 0.64354,0 14.23782,5.8611916 19.90549,8.5822806 l 1.12,0.53772 -0.0335,0.96 c -0.0184,0.528 -0.0904,1.307751 -0.16,1.73278 l -0.12653,0.772781 2.33554,1.018762 c 3.14867,1.373447 3.10808,1.30683 2.26073,3.710348 l -0.72107,2.045329 0.0486,5.44 c 0.0527,5.900926 -0.2023,7.550532 -1.28414,8.308285 l -0.70202,0.491716 -4.4888,-0.03772 C 397.05996,41.861532 393.6,41.650254 391.84,41.412771 Z m 7.11962,-5.744485 c 1.1215,-0.785528 1.41655,-2.598993 1.18518,-7.28445 l -0.20857,-4.223835 0.54371,-2.4 c 0.29904,-1.32 0.56538,-2.672132 0.59188,-3.004737 l 0.0482,-0.604737 -8.64,-3.889451 c -4.752,-2.139199 -9.24595,-4.131479 -9.98655,-4.427291 l -1.34655,-0.5378392 -1.10666,3.4320272 c -2.13814,6.630905 -2.94573,13.494378 -2.17105,18.451142 0.53101,3.397668 0.2704,3.291882 11.73081,4.761859 0.528,0.06772 2.69196,0.144711 4.8088,0.171081 l 3.8488,0.04795 z M 438.4,37.881913 c -6.6231,-2.031537 -12.73837,-4.671043 -16.72,-7.216784 -1.44034,-0.920913 -1.65584,-1.208752 -1.55145,-2.072206 0.0244,-0.201894 -0.93052,-0.89911 -2.12208,-1.549369 -4.81236,-2.626211 -4.88239,-3.147162 -1.09195,-8.122762 5.71123,-7.49696 9.12019,-13.3794402 9.5259,-16.4378043 0.53899,-4.0631039 4.86279,-2.34470639 16.27958,6.4699595 1.76,1.3588588 3.82603,2.8630038 4.59117,3.3425428 l 1.39117,0.871891 -0.1994,1.0629 -0.1994,1.0629 1.20823,0.92562 c 0.66453,0.50909 1.82023,1.318168 2.56823,1.79795 1.62681,1.043466 1.60003,0.721513 0.2787,3.351238 -0.59471,1.183607 -1.69246,3.592012 -2.43944,5.352012 -3.61544,8.518581 -5.82224,12.331858 -7.12127,12.305349 C 442.4031,39.01725 440.424,38.502745 438.4,37.881913 Z m -0.0803,-5.321912 c 0.97324,-1.043857 2.96698,-4.938827 5.19823,-10.155226 1.07178,-2.505692 2.37469,-5.399715 2.89536,-6.431163 1.14346,-2.265179 1.14812,-2.339099 0.17546,-2.782272 C 446.16458,12.998075 444,11.457521 441.77857,9.7678876 434.76085,4.4301678 428.63354,0.6997649 427.97142,1.3618838 c -0.0958,0.095855 -0.36993,1.109378 -0.60905,2.2522731 -0.70019,3.3465451 -3.18573,7.6160021 -8.8602,15.2193701 l -3.49757,4.686474 1.0479,0.881921 c 2.42384,2.039922 10.25204,5.473234 17.70747,7.766184 4.23868,1.303624 3.74893,1.261532 4.55973,0.391895 z"
         id="path2" />
    </g>
  </g>
</svg>
